STARTFONT 2.1
FONT -Adobe-Times-Bold-R-Normal--14-100-100-100-P-76-ISO10646-1
SIZE 10 100 100
FONTBOUNDINGBOX 17 24 -2 -6
COMMENT ISO10646-1 extension by Markus Kuhn <mkuhn@acm.org>, 2001-03-20
COMMENT 
COMMENT +
COMMENT  Copyright 1984-1989, 1994 Adobe Systems Incorporated.
COMMENT  Copyright 1988, 1994 Digital Equipment Corporation.
COMMENT
COMMENT  Adobe is a trademark of Adobe Systems Incorporated which may be
COMMENT  registered in certain jurisdictions.
COMMENT  Permission to use these trademarks is hereby granted only in
COMMENT  association with the images described in this file.
COMMENT
COMMENT  Permission to use, copy, modify, distribute and sell this software
COMMENT  and its documentation for any purpose and without fee is hereby
COMMENT  granted, provided that the above copyright notices appear in all
COMMENT  copies and that both those copyright notices and this permission
COMMENT  notice appear in supporting documentation, and that the names of
COMMENT  Adobe Systems and Digital Equipment Corporation not be used in
COMMENT  advertising or publicity pertaining to distribution of the software
COMMENT  without specific, written prior permission.  Adobe Systems and
COMMENT  Digital Equipment Corporation make no representations about the
COMMENT  suitability of this software for any purpose.  It is provided "as
COMMENT  is" without express or implied warranty.
COMMENT -
STARTPROPERTIES 26
FOUNDRY "Adobe"
FAMILY_NAME "Times"
WEIGHT_NAME "Bold"
SLANT "R"
SETWIDTH_NAME "Normal"
ADD_STYLE_NAME ""
PIXEL_SIZE 14
POINT_SIZE 100
RESOLUTION_X 100
RESOLUTION_Y 100
SPACING "P"
AVERAGE_WIDTH 76
CHARSET_REGISTRY "ISO10646"
CHARSET_ENCODING "1"
CAP_HEIGHT 10
X_HEIGHT 7
FONT_ASCENT 12
FONT_DESCENT 3
FACE_NAME "Times Bold"
COPYRIGHT "Copyright (c) 1984, 1987 Adobe Systems Incorporated. All Rights Reserved. Copyright (c) 1988, 1991 Digital Equipment Corporation. All Rights Reserved."
NOTICE "Times is a trademark of Linotype-Hell AG and/or its subsidiaries."

STARTCHAR char0
ENCODING 0
SWIDTH 778 0
DWIDTH 11 0
BBX 9 9 0 0
BITMAP
AA80
0000
8080
0000
8080
0000
8080
0000
AA80
ENDCHAR
STARTCHAR space
ENCODING 32
SWIDTH 250 0
DWIDTH 3 0
BBX 1 1 0 0
BITMAP
00
ENDCHAR
STARTCHAR exclam
ENCODING 33
SWIDTH 333 0
DWIDTH 4 0
BBX 2 10 1 0
BITMAP
C0
C0
C0
C0
C0
C0
C0
00
C0
C0
ENDCHAR
STARTCHAR quotedbl
ENCODING 34
SWIDTH 555 0
DWIDTH 7 0
BBX 5 4 1 6
BITMAP
D8
D8
D8
48
ENDCHAR
STARTCHAR numbersign
ENCODING 35
SWIDTH 500 0
DWIDTH 7 0
BBX 7 10 -1 0
BITMAP
14
14
14
7E
28
28
FC
50
50
50
ENDCHAR
STARTCHAR dollar
ENCODING 36
SWIDTH 500 0
DWIDTH 7 0
BBX 6 12 0 -1
BITMAP
10
78
D4
D4
F0
78
3C
1C
94
D4
78
10
ENDCHAR
STARTCHAR percent
ENCODING 37
SWIDTH 1000 0
DWIDTH 14 0
BBX 13 10 0 0
BITMAP
38C0
67C0
C580
C900
7300
0670
04C8
0D88
1990
18E0
ENDCHAR
STARTCHAR ampersand
ENCODING 38
SWIDTH 833 0
DWIDTH 12 0
BBX 10 10 1 0
BITMAP
3C00
6600
6600
3C00
39C0
6C80
CD80
C700
EF80
7B00
ENDCHAR
STARTCHAR quotesingle
ENCODING 39
SWIDTH 278 0
DWIDTH 4 0
BBX 2 4 1 6
BITMAP
C0
C0
C0
40
ENDCHAR
STARTCHAR parenleft
ENCODING 40
SWIDTH 333 0
DWIDTH 5 0
BBX 3 13 1 -3
BITMAP
20
60
40
C0
C0
C0
C0
C0
C0
C0
40
60
20
ENDCHAR
STARTCHAR parenright
ENCODING 41
SWIDTH 333 0
DWIDTH 5 0
BBX 3 13 0 -3
BITMAP
80
C0
40
60
60
60
60
60
60
60
40
C0
80
ENDCHAR
STARTCHAR asterisk
ENCODING 42
SWIDTH 500 0
DWIDTH 7 0
BBX 5 6 1 4
BITMAP
20
A8
70
70
A8
20
ENDCHAR
STARTCHAR plus
ENCODING 43
SWIDTH 570 0
DWIDTH 8 0
BBX 7 7 0 0
BITMAP
10
10
10
FE
10
10
10
ENDCHAR
STARTCHAR comma
ENCODING 44
SWIDTH 250 0
DWIDTH 3 0
BBX 2 4 0 -2
BITMAP
C0
C0
40
80
ENDCHAR
STARTCHAR hyphen
ENCODING 45
SWIDTH 333 0
DWIDTH 4 0
BBX 3 1 0 3
BITMAP
E0
ENDCHAR
STARTCHAR period
ENCODING 46
SWIDTH 250 0
DWIDTH 3 0
BBX 2 2 0 0
BITMAP
C0
C0
ENDCHAR
STARTCHAR slash
ENCODING 47
SWIDTH 278 0
DWIDTH 4 0
BBX 4 10 0 0
BITMAP
10
10
30
20
60
40
40
C0
80
80
ENDCHAR
STARTCHAR zero
ENCODING 48
SWIDTH 500 0
DWIDTH 7 0
BBX 6 10 0 0
BITMAP
78
48
CC
CC
CC
CC
CC
CC
48
78
ENDCHAR
STARTCHAR one
ENCODING 49
SWIDTH 500 0
DWIDTH 7 0
BBX 6 10 0 0
BITMAP
30
F0
30
30
30
30
30
30
30
FC
ENDCHAR
STARTCHAR two
ENCODING 50
SWIDTH 500 0
DWIDTH 7 0
BBX 6 10 0 0
BITMAP
38
7C
8C
0C
0C
18
30
40
FC
FC
ENDCHAR
STARTCHAR three
ENCODING 51
SWIDTH 500 0
DWIDTH 7 0
BBX 6 10 0 0
BITMAP
38
7C
8C
0C
38
1C
0C
C4
EC
78
ENDCHAR
STARTCHAR four
ENCODING 52
SWIDTH 500 0
DWIDTH 7 0
BBX 6 10 0 0
BITMAP
18
38
38
58
98
98
FC
FC
18
18
ENDCHAR
STARTCHAR five
ENCODING 53
SWIDTH 500 0
DWIDTH 7 0
BBX 6 10 0 0
BITMAP
7C
7C
40
78
7C
0C
04
C4
CC
78
ENDCHAR
STARTCHAR six
ENCODING 54
SWIDTH 500 0
DWIDTH 7 0
BBX 6 10 0 0
BITMAP
1C
30
60
E0
F8
CC
CC
CC
CC
78
ENDCHAR
STARTCHAR seven
ENCODING 55
SWIDTH 500 0
DWIDTH 7 0
BBX 6 10 0 0
BITMAP
FC
FC
8C
08
18
10
10
20
20
60
ENDCHAR
STARTCHAR eight
ENCODING 56
SWIDTH 500 0
DWIDTH 7 0
BBX 6 10 0 0
BITMAP
78
CC
CC
EC
78
78
CC
CC
CC
78
ENDCHAR
STARTCHAR nine
ENCODING 57
SWIDTH 500 0
DWIDTH 7 0
BBX 6 10 0 0
BITMAP
78
CC
CC
CC
CC
7C
18
38
70
C0
ENDCHAR
STARTCHAR colon
ENCODING 58
SWIDTH 333 0
DWIDTH 4 0
BBX 2 7 1 0
BITMAP
C0
C0
00
00
00
C0
C0
ENDCHAR
STARTCHAR semicolon
ENCODING 59
SWIDTH 333 0
DWIDTH 4 0
BBX 2 9 1 -2
BITMAP
C0
C0
00
00
00
C0
C0
40
80
ENDCHAR
STARTCHAR less
ENCODING 60
SWIDTH 570 0
DWIDTH 8 0
BBX 7 7 0 0
BITMAP
06
1C
70
C0
70
1C
06
ENDCHAR
STARTCHAR equal
ENCODING 61
SWIDTH 570 0
DWIDTH 8 0
BBX 7 3 0 2
BITMAP
FE
00
FE
ENDCHAR
STARTCHAR greater
ENCODING 62
SWIDTH 570 0
DWIDTH 8 0
BBX 7 7 0 0
BITMAP
C0
70
1C
06
1C
70
C0
ENDCHAR
STARTCHAR question
ENCODING 63
SWIDTH 500 0
DWIDTH 7 0
BBX 5 10 1 0
BITMAP
70
D8
D8
18
30
60
60
00
60
60
ENDCHAR
STARTCHAR at
ENCODING 64
SWIDTH 930 0
DWIDTH 14 0
BBX 11 12 1 -2
BITMAP
0F80
38C0
6060
4520
8F20
9B20
9B20
9F60
8DC0
4000
6000
1F80
ENDCHAR
STARTCHAR A
ENCODING 65
SWIDTH 722 0
DWIDTH 10 0
BBX 10 10 0 0
BITMAP
0C00
0C00
1E00
1600
3300
2300
3F00
6180
4180
E3C0
ENDCHAR
STARTCHAR B
ENCODING 66
SWIDTH 667 0
DWIDTH 9 0
BBX 8 10 0 0
BITMAP
FE
63
63
63
7E
63
63
63
63
FE
ENDCHAR
STARTCHAR C
ENCODING 67
SWIDTH 722 0
DWIDTH 10 0
BBX 8 10 1 0
BITMAP
3D
63
C1
C1
C0
C0
C0
C1
63
3E
ENDCHAR
STARTCHAR D
ENCODING 68
SWIDTH 722 0
DWIDTH 10 0
BBX 9 10 0 0
BITMAP
FE00
6300
6180
6180
6180
6180
6180
6180
6300
FE00
ENDCHAR
STARTCHAR E
ENCODING 69
SWIDTH 667 0
DWIDTH 9 0
BBX 8 10 0 0
BITMAP
FF
63
61
64
7C
64
60
61
63
FF
ENDCHAR
STARTCHAR F
ENCODING 70
SWIDTH 611 0
DWIDTH 8 0
BBX 8 10 0 0
BITMAP
FF
63
61
64
7C
64
64
60
60
F0
ENDCHAR
STARTCHAR G
ENCODING 71
SWIDTH 778 0
DWIDTH 11 0
BBX 9 10 1 0
BITMAP
3D00
6300
C100
C100
C000
C780
C300
C300
6300
3E00
ENDCHAR
STARTCHAR H
ENCODING 72
SWIDTH 778 0
DWIDTH 11 0
BBX 10 10 0 0
BITMAP
F3C0
6180
6180
6180
7F80
6180
6180
6180
6180
F3C0
ENDCHAR
STARTCHAR I
ENCODING 73
SWIDTH 389 0
DWIDTH 5 0
BBX 4 10 0 0
BITMAP
F0
60
60
60
60
60
60
60
60
F0
ENDCHAR
STARTCHAR J
ENCODING 74
SWIDTH 500 0
DWIDTH 7 0
BBX 6 11 0 -1
BITMAP
3C
18
18
18
18
18
18
18
D8
D8
70
ENDCHAR
STARTCHAR K
ENCODING 75
SWIDTH 778 0
DWIDTH 11 0
BBX 10 10 1 0
BITMAP
F7C0
6300
6200
6400
7800
7C00
6E00
6700
6380
F7C0
ENDCHAR
STARTCHAR L
ENCODING 76
SWIDTH 667 0
DWIDTH 9 0
BBX 8 10 0 0
BITMAP
F0
60
60
60
60
60
61
61
63
FF
ENDCHAR
STARTCHAR M
ENCODING 77
SWIDTH 944 0
DWIDTH 13 0
BBX 12 10 0 0
BITMAP
F0F0
70E0
70E0
5960
5960
5A60
4E60
4E60
4460
E4F0
ENDCHAR
STARTCHAR N
ENCODING 78
SWIDTH 722 0
DWIDTH 10 0
BBX 10 10 0 0
BITMAP
E1C0
7080
7080
5880
4C80
4C80
4680
4380
4380
E180
ENDCHAR
STARTCHAR O
ENCODING 79
SWIDTH 778 0
DWIDTH 11 0
BBX 9 10 1 0
BITMAP
3E00
6300
C180
C180
C180
C180
C180
C180
6300
3E00
ENDCHAR
STARTCHAR P
ENCODING 80
SWIDTH 611 0
DWIDTH 9 0
BBX 8 10 0 0
BITMAP
FE
67
63
63
63
7E
60
60
60
F0
ENDCHAR
STARTCHAR Q
ENCODING 81
SWIDTH 778 0
DWIDTH 11 0
BBX 9 13 1 -3
BITMAP
3E00
6300
C180
C180
C180
C180
C180
C180
6300
3E00
1C00
0E00
0380
ENDCHAR
STARTCHAR R
ENCODING 82
SWIDTH 722 0
DWIDTH 10 0
BBX 10 10 0 0
BITMAP
FE00
6700
6300
6300
6600
7C00
6E00
6700
6380
F1C0
ENDCHAR
STARTCHAR S
ENCODING 83
SWIDTH 556 0
DWIDTH 8 0
BBX 7 10 0 0
BITMAP
7A
C6
C2
E0
78
1C
0E
86
C6
FC
ENDCHAR
STARTCHAR T
ENCODING 84
SWIDTH 667 0
DWIDTH 9 0
BBX 8 10 0 0
BITMAP
FF
DB
99
18
18
18
18
18
18
3C
ENDCHAR
STARTCHAR U
ENCODING 85
SWIDTH 722 0
DWIDTH 10 0
BBX 9 10 0 0
BITMAP
F380
6100
6100
6100
6100
6100
6100
6100
7300
3E00
ENDCHAR
STARTCHAR V
ENCODING 86
SWIDTH 722 0
DWIDTH 10 0
BBX 10 10 0 0
BITMAP
F1C0
6080
6180
3100
3300
3200
1A00
1E00
0C00
0C00
ENDCHAR
STARTCHAR W
ENCODING 87
SWIDTH 1000 0
DWIDTH 14 0
BBX 15 10 -1 0
BITMAP
F79E
630C
6308
3188
3190
3390
1AD0
1CE0
0C60
0C60
ENDCHAR
STARTCHAR X
ENCODING 88
SWIDTH 722 0
DWIDTH 10 0
BBX 11 10 0 0
BITMAP
F1C0
7080
3900
1E00
0C00
0E00
1700
2380
41C0
E3E0
ENDCHAR
STARTCHAR Y
ENCODING 89
SWIDTH 722 0
DWIDTH 10 0
BBX 10 10 0 0
BITMAP
F9C0
7080
3100
3900
1A00
1E00
0C00
0C00
0C00
1E00
ENDCHAR
STARTCHAR Z
ENCODING 90
SWIDTH 667 0
DWIDTH 9 0
BBX 8 10 0 0
BITMAP
FF
C7
86
8C
18
18
31
61
E3
FF
ENDCHAR
STARTCHAR bracketleft
ENCODING 91
SWIDTH 333 0
DWIDTH 5 0
BBX 4 13 0 -3
BITMAP
F0
C0
C0
C0
C0
C0
C0
C0
C0
C0
C0
C0
F0
ENDCHAR
STARTCHAR backslash
ENCODING 92
SWIDTH 278 0
DWIDTH 4 0
BBX 4 10 0 0
BITMAP
80
80
C0
40
60
20
20
30
10
10
ENDCHAR
STARTCHAR bracketright
ENCODING 93
SWIDTH 333 0
DWIDTH 5 0
BBX 4 13 0 -3
BITMAP
F0
30
30
30
30
30
30
30
30
30
30
30
F0
ENDCHAR
STARTCHAR asciicircum
ENCODING 94
SWIDTH 581 0
DWIDTH 8 0
BBX 5 5 1 5
BITMAP
20
70
50
D8
88
ENDCHAR
STARTCHAR underscore
ENCODING 95
SWIDTH 500 0
DWIDTH 7 0
BBX 7 1 0 -3
BITMAP
FE
ENDCHAR
STARTCHAR grave
ENCODING 96
SWIDTH 333 0
DWIDTH 5 0
BBX 3 3 1 8
BITMAP
80
C0
20
ENDCHAR
STARTCHAR a
ENCODING 97
SWIDTH 500 0
DWIDTH 7 0
BBX 7 7 0 0
BITMAP
78
CC
0C
7C
CC
CC
76
ENDCHAR
STARTCHAR b
ENCODING 98
SWIDTH 556 0
DWIDTH 8 0
BBX 7 10 0 0
BITMAP
E0
60
60
7C
66
66
66
66
66
5C
ENDCHAR
STARTCHAR c
ENCODING 99
SWIDTH 444 0
DWIDTH 6 0
BBX 5 7 0 0
BITMAP
30
58
C8
C0
C0
E8
70
ENDCHAR
STARTCHAR d
ENCODING 100
SWIDTH 556 0
DWIDTH 7 0
BBX 7 10 0 0
BITMAP
1C
0C
0C
7C
CC
CC
CC
CC
CC
76
ENDCHAR
STARTCHAR e
ENCODING 101
SWIDTH 444 0
DWIDTH 6 0
BBX 6 7 0 0
BITMAP
38
4C
CC
FC
C0
E4
78
ENDCHAR
STARTCHAR f
ENCODING 102
SWIDTH 333 0
DWIDTH 5 0
BBX 5 10 0 0
BITMAP
38
68
60
F0
60
60
60
60
60
F0
ENDCHAR
STARTCHAR g
ENCODING 103
SWIDTH 500 0
DWIDTH 7 0
BBX 7 10 0 -3
BITMAP
7E
CC
CC
CC
78
40
7C
FE
82
7C
ENDCHAR
STARTCHAR h
ENCODING 104
SWIDTH 556 0
DWIDTH 8 0
BBX 8 10 0 0
BITMAP
E0
60
60
6C
76
66
66
66
66
E7
ENDCHAR
STARTCHAR i
ENCODING 105
SWIDTH 278 0
DWIDTH 4 0
BBX 4 10 0 0
BITMAP
60
60
00
E0
60
60
60
60
60
F0
ENDCHAR
STARTCHAR j
ENCODING 106
SWIDTH 333 0
DWIDTH 4 0
BBX 4 13 -1 -3
BITMAP
30
30
00
70
30
30
30
30
30
30
30
B0
E0
ENDCHAR
STARTCHAR k
ENCODING 107
SWIDTH 556 0
DWIDTH 8 0
BBX 8 10 0 0
BITMAP
E0
60
60
6E
64
68
78
6C
66
E7
ENDCHAR
STARTCHAR l
ENCODING 108
SWIDTH 278 0
DWIDTH 4 0
BBX 4 10 0 0
BITMAP
E0
60
60
60
60
60
60
60
60
F0
ENDCHAR
STARTCHAR m
ENCODING 109
SWIDTH 833 0
DWIDTH 12 0
BBX 12 7 0 0
BITMAP
ECC0
7760
6660
6660
6660
6660
F770
ENDCHAR
STARTCHAR n
ENCODING 110
SWIDTH 556 0
DWIDTH 8 0
BBX 8 7 0 0
BITMAP
EC
76
66
66
66
66
E7
ENDCHAR
STARTCHAR o
ENCODING 111
SWIDTH 500 0
DWIDTH 7 0
BBX 6 7 0 0
BITMAP
78
CC
CC
CC
CC
CC
78
ENDCHAR
STARTCHAR p
ENCODING 112
SWIDTH 556 0
DWIDTH 8 0
BBX 7 10 0 -3
BITMAP
EC
76
66
66
66
66
7C
60
60
F0
ENDCHAR
STARTCHAR q
ENCODING 113
SWIDTH 556 0
DWIDTH 7 0
BBX 7 10 0 -3
BITMAP
6C
DC
CC
CC
CC
CC
7C
0C
0C
1E
ENDCHAR
STARTCHAR r
ENCODING 114
SWIDTH 444 0
DWIDTH 6 0
BBX 6 7 0 0
BITMAP
DC
6C
60
60
60
60
F0
ENDCHAR
STARTCHAR s
ENCODING 115
SWIDTH 389 0
DWIDTH 6 0
BBX 5 7 0 0
BITMAP
78
C8
E0
70
38
98
F0
ENDCHAR
STARTCHAR t
ENCODING 116
SWIDTH 333 0
DWIDTH 5 0
BBX 5 9 0 0
BITMAP
20
60
F0
60
60
60
68
70
30
ENDCHAR
STARTCHAR u
ENCODING 117
SWIDTH 556 0
DWIDTH 7 0
BBX 8 7 -1 0
BITMAP
EE
66
66
66
66
66
3B
ENDCHAR
STARTCHAR v
ENCODING 118
SWIDTH 500 0
DWIDTH 7 0
BBX 8 7 -1 0
BITMAP
F7
62
62
34
34
18
18
ENDCHAR
STARTCHAR w
ENCODING 119
SWIDTH 722 0
DWIDTH 10 0
BBX 10 7 0 0
BITMAP
EEC0
6480
7680
3700
3B00
3B00
1200
ENDCHAR
STARTCHAR x
ENCODING 120
SWIDTH 500 0
DWIDTH 7 0
BBX 7 7 0 0
BITMAP
EE
6C
38
38
38
6C
EE
ENDCHAR
STARTCHAR y
ENCODING 121
SWIDTH 500 0
DWIDTH 7 0
BBX 8 10 -1 -3
BITMAP
F7
62
32
34
1C
1C
08
08
38
30
ENDCHAR
STARTCHAR z
ENCODING 122
SWIDTH 444 0
DWIDTH 6 0
BBX 6 7 0 0
BITMAP
FC
9C
18
30
64
E4
FC
ENDCHAR
STARTCHAR braceleft
ENCODING 123
SWIDTH 394 0
DWIDTH 7 0
BBX 5 13 1 -3
BITMAP
18
30
30
30
30
60
C0
60
30
30
30
30
18
ENDCHAR
STARTCHAR bar
ENCODING 124
SWIDTH 220 0
DWIDTH 3 0
BBX 1 12 1 -2
BITMAP
80
80
80
80
80
80
80
80
80
80
80
80
ENDCHAR
STARTCHAR braceright
ENCODING 125
SWIDTH 394 0
DWIDTH 7 0
BBX 5 13 0 -3
BITMAP
C0
60
60
60
60
30
18
30
60
60
60
60
C0
ENDCHAR
STARTCHAR asciitilde
ENCODING 126
SWIDTH 520 0
DWIDTH 8 0
BBX 7 4 0 3
BITMAP
60
F2
9E
0C
ENDCHAR
STARTCHAR space
ENCODING 160
SWIDTH 250 0
DWIDTH 3 0
BBX 1 1 0 0
BITMAP
00
ENDCHAR
STARTCHAR exclamdown
ENCODING 161
SWIDTH 333 0
DWIDTH 4 0
BBX 2 10 1 -3
BITMAP
C0
C0
00
C0
C0
C0
C0
C0
C0
C0
ENDCHAR
STARTCHAR cent
ENCODING 162
SWIDTH 500 0
DWIDTH 7 0
BBX 6 11 0 -2
BITMAP
08
08
78
D4
D0
D0
F0
E4
78
20
20
ENDCHAR
STARTCHAR sterling
ENCODING 163
SWIDTH 500 0
DWIDTH 8 0
BBX 7 10 0 0
BITMAP
3C
76
66
60
30
F8
30
30
F6
DE
ENDCHAR
STARTCHAR currency
ENCODING 164
SWIDTH 500 0
DWIDTH 8 0
BBX 7 6 0 2
BITMAP
38
EE
44
44
EE
38
ENDCHAR
STARTCHAR yen
ENCODING 165
SWIDTH 500 0
DWIDTH 8 0
BBX 8 10 0 0
BITMAP
F7
62
76
34
3C
18
3C
18
18
3C
ENDCHAR
STARTCHAR brokenbar
ENCODING 166
SWIDTH 220 0
DWIDTH 3 0
BBX 1 12 1 -2
BITMAP
80
80
80
80
80
00
00
80
80
80
80
80
ENDCHAR
STARTCHAR section
ENCODING 167
SWIDTH 500 0
DWIDTH 7 0
BBX 5 12 1 -2
BITMAP
70
D8
C8
60
F0
98
C8
78
30
98
D8
70
ENDCHAR
STARTCHAR dieresis
ENCODING 168
SWIDTH 333 0
DWIDTH 5 0
BBX 3 2 1 8
BITMAP
A0
A0
ENDCHAR
STARTCHAR copyright
ENCODING 169
SWIDTH 747 0
DWIDTH 12 0
BBX 10 10 1 0
BITMAP
1E00
6180
4E80
9240
9040
9040
9240
4C80
6180
1E00
ENDCHAR
STARTCHAR ordfeminine
ENCODING 170
SWIDTH 300 0
DWIDTH 5 0
BBX 4 7 0 3
BITMAP
60
10
70
90
70
00
F0
ENDCHAR
STARTCHAR guillemotleft
ENCODING 171
SWIDTH 500 0
DWIDTH 9 0
BBX 7 5 1 1
BITMAP
36
6C
D8
6C
36
ENDCHAR
STARTCHAR logicalnot
ENCODING 172
SWIDTH 570 0
DWIDTH 9 0
BBX 7 4 1 1
BITMAP
FE
02
02
02
ENDCHAR
STARTCHAR hyphen
ENCODING 173
SWIDTH 333 0
DWIDTH 4 0
BBX 3 1 0 3
BITMAP
E0
ENDCHAR
STARTCHAR registered
ENCODING 174
SWIDTH 747 0
DWIDTH 12 0
BBX 10 10 1 0
BITMAP
1E00
6180
5C80
9240
9240
9C40
9440
5280
6180
1E00
ENDCHAR
STARTCHAR macron
ENCODING 175
SWIDTH 333 0
DWIDTH 5 0
BBX 4 1 0 8
BITMAP
F0
ENDCHAR
STARTCHAR degree
ENCODING 176
SWIDTH 400 0
DWIDTH 6 0
BBX 4 4 1 6
BITMAP
60
90
90
60
ENDCHAR
STARTCHAR plusminus
ENCODING 177
SWIDTH 570 0
DWIDTH 8 0
BBX 7 9 0 0
BITMAP
10
10
10
FE
10
10
10
00
FE
ENDCHAR
STARTCHAR twosuperior
ENCODING 178
SWIDTH 300 0
DWIDTH 4 0
BBX 4 6 0 4
BITMAP
60
B0
30
60
C0
F0
ENDCHAR
STARTCHAR threesuperior
ENCODING 179
SWIDTH 300 0
DWIDTH 4 0
BBX 4 6 0 4
BITMAP
60
B0
60
30
B0
60
ENDCHAR
STARTCHAR acute
ENCODING 180
SWIDTH 333 0
DWIDTH 5 0
BBX 3 3 1 8
BITMAP
20
60
80
ENDCHAR
STARTCHAR mu
ENCODING 181
SWIDTH 556 0
DWIDTH 7 0
BBX 8 10 -1 -3
BITMAP
EE
66
66
66
66
66
7B
40
60
60
ENDCHAR
STARTCHAR paragraph
ENCODING 182
SWIDTH 540 0
DWIDTH 8 0
BBX 7 13 0 -3
BITMAP
7E
F4
F4
F4
F4
74
14
14
14
14
14
14
14
ENDCHAR
STARTCHAR periodcentered
ENCODING 183
SWIDTH 250 0
DWIDTH 4 0
BBX 2 2 0 4
BITMAP
C0
C0
ENDCHAR
STARTCHAR cedilla
ENCODING 184
SWIDTH 333 0
DWIDTH 5 0
BBX 3 3 1 -3
BITMAP
40
20
E0
ENDCHAR
STARTCHAR onesuperior
ENCODING 185
SWIDTH 300 0
DWIDTH 4 0
BBX 4 6 0 4
BITMAP
20
E0
60
60
60
F0
ENDCHAR
STARTCHAR ordmasculine
ENCODING 186
SWIDTH 330 0
DWIDTH 5 0
BBX 4 7 0 3
BITMAP
60
90
90
90
60
00
F0
ENDCHAR
STARTCHAR guillemotright
ENCODING 187
SWIDTH 500 0
DWIDTH 9 0
BBX 7 5 1 1
BITMAP
D8
6C
36
6C
D8
ENDCHAR
STARTCHAR onequarter
ENCODING 188
SWIDTH 750 0
DWIDTH 10 0
BBX 10 10 0 0
BITMAP
2100
E200
6200
6400
6480
F980
0B80
1680
17C0
2180
ENDCHAR
STARTCHAR onehalf
ENCODING 189
SWIDTH 750 0
DWIDTH 10 0
BBX 10 10 0 0
BITMAP
2100
E200
6200
6400
6580
FAC0
08C0
1180
1300
23C0
ENDCHAR
STARTCHAR threequarters
ENCODING 190
SWIDTH 750 0
DWIDTH 10 0
BBX 10 10 0 0
BITMAP
6100
B200
6200
3400
B480
6980
0B80
1680
17C0
2180
ENDCHAR
STARTCHAR questiondown
ENCODING 191
SWIDTH 500 0
DWIDTH 7 0
BBX 5 10 1 -3
BITMAP
30
30
00
30
30
60
C0
D8
D8
70
ENDCHAR
STARTCHAR Agrave
ENCODING 192
SWIDTH 722 0
DWIDTH 10 0
BBX 10 14 0 0
BITMAP
1000
1800
0400
0000
0C00
0C00
1E00
1600
3300
2300
3F00
6180
4180
E3C0
ENDCHAR
STARTCHAR Aacute
ENCODING 193
SWIDTH 722 0
DWIDTH 10 0
BBX 10 14 0 0
BITMAP
0200
0600
0800
0000
0C00
0C00
1E00
1600
3300
2300
3F00
6180
4180
E3C0
ENDCHAR
STARTCHAR Acircumflex
ENCODING 194
SWIDTH 722 0
DWIDTH 10 0
BBX 10 14 0 0
BITMAP
0800
1C00
2200
0000
0C00
0C00
1E00
1600
3300
2300
3F00
6180
4180
E3C0
ENDCHAR
STARTCHAR Atilde
ENCODING 195
SWIDTH 722 0
DWIDTH 10 0
BBX 10 13 0 0
BITMAP
1A00
2C00
0000
0C00
0C00
1E00
1600
3300
2300
3F00
6180
4180
E3C0
ENDCHAR
STARTCHAR Adieresis
ENCODING 196
SWIDTH 722 0
DWIDTH 10 0
BBX 10 13 0 0
BITMAP
1200
1200
0000
0C00
0C00
1E00
1600
3300
2300
3F00
6180
4180
E3C0
ENDCHAR
STARTCHAR Aring
ENCODING 197
SWIDTH 722 0
DWIDTH 10 0
BBX 10 14 0 0
BITMAP
0C00
1200
0C00
0000
0C00
0C00
1E00
1600
3300
2300
3F00
6180
4180
E3C0
ENDCHAR
STARTCHAR AE
ENCODING 198
SWIDTH 1000 0
DWIDTH 14 0
BBX 13 10 0 0
BITMAP
1FF8
0F18
0B08
1B20
13E0
3F20
2328
6308
4318
E7F8
ENDCHAR
STARTCHAR Ccedilla
ENCODING 199
SWIDTH 722 0
DWIDTH 10 0
BBX 8 13 1 -3
BITMAP
3D
63
C1
C1
C0
C0
C0
C1
63
3E
10
08
38
ENDCHAR
STARTCHAR Egrave
ENCODING 200
SWIDTH 667 0
DWIDTH 9 0
BBX 8 14 0 0
BITMAP
20
30
08
00
FF
63
61
64
7C
64
65
61
63
FF
ENDCHAR
STARTCHAR Eacute
ENCODING 201
SWIDTH 667 0
DWIDTH 9 0
BBX 8 14 0 0
BITMAP
04
0C
10
00
FF
63
61
64
7C
64
65
61
63
FF
ENDCHAR
STARTCHAR Ecircumflex
ENCODING 202
SWIDTH 667 0
DWIDTH 9 0
BBX 8 14 0 0
BITMAP
08
1C
22
00
FF
63
61
64
7C
64
65
61
63
FF
ENDCHAR
STARTCHAR Edieresis
ENCODING 203
SWIDTH 667 0
DWIDTH 9 0
BBX 8 13 0 0
BITMAP
24
24
00
FF
63
61
64
7C
64
65
61
63
FF
ENDCHAR
STARTCHAR Igrave
ENCODING 204
SWIDTH 389 0
DWIDTH 5 0
BBX 4 14 0 0
BITMAP
80
C0
20
00
F0
60
60
60
60
60
60
60
60
F0
ENDCHAR
STARTCHAR Iacute
ENCODING 205
SWIDTH 389 0
DWIDTH 5 0
BBX 4 14 0 0
BITMAP
10
30
40
00
F0
60
60
60
60
60
60
60
60
F0
ENDCHAR
STARTCHAR Icircumflex
ENCODING 206
SWIDTH 389 0
DWIDTH 5 0
BBX 5 14 0 0
BITMAP
20
70
88
00
F0
60
60
60
60
60
60
60
60
F0
ENDCHAR
STARTCHAR Idieresis
ENCODING 207
SWIDTH 389 0
DWIDTH 5 0
BBX 4 13 0 0
BITMAP
90
90
00
F0
60
60
60
60
60
60
60
60
F0
ENDCHAR
STARTCHAR Eth
ENCODING 208
SWIDTH 722 0
DWIDTH 11 0
BBX 9 10 1 0
BITMAP
FE00
6300
6180
6180
F180
6180
6180
6180
6300
FE00
ENDCHAR
STARTCHAR Ntilde
ENCODING 209
SWIDTH 722 0
DWIDTH 10 0
BBX 10 13 0 0
BITMAP
1A00
2C00
0000
E1C0
7080
7080
5880
4C80
4C80
4680
4380
4380
E180
ENDCHAR
STARTCHAR Ograve
ENCODING 210
SWIDTH 778 0
DWIDTH 11 0
BBX 9 14 1 0
BITMAP
1000
1800
0400
0000
3E00
6300
C180
C180
C180
C180
C180
C180
6300
3E00
ENDCHAR
STARTCHAR Oacute
ENCODING 211
SWIDTH 778 0
DWIDTH 11 0
BBX 9 14 1 0
BITMAP
0400
0C00
1000
0000
3E00
6300
C180
C180
C180
C180
C180
C180
6300
3E00
ENDCHAR
STARTCHAR Ocircumflex
ENCODING 212
SWIDTH 778 0
DWIDTH 11 0
BBX 9 14 1 0
BITMAP
0800
1C00
2200
0000
3E00
6300
C180
C180
C180
C180
C180
C180
6300
3E00
ENDCHAR
STARTCHAR Otilde
ENCODING 213
SWIDTH 778 0
DWIDTH 11 0
BBX 9 13 1 0
BITMAP
1A00
2C00
0000
3E00
6300
C180
C180
C180
C180
C180
C180
6300
3E00
ENDCHAR
STARTCHAR Odieresis
ENCODING 214
SWIDTH 778 0
DWIDTH 11 0
BBX 9 13 1 0
BITMAP
2200
2200
0000
3E00
6300
C180
C180
C180
C180
C180
C180
6300
3E00
ENDCHAR
STARTCHAR multiply
ENCODING 215
SWIDTH 570 0
DWIDTH 8 0
BBX 8 7 0 0
BITMAP
C3
66
3C
18
3C
66
C3
ENDCHAR
STARTCHAR Oslash
ENCODING 216
SWIDTH 778 0
DWIDTH 11 0
BBX 9 12 1 -1
BITMAP
0080
3D00
6300
C380
C580
C980
C980
D180
E180
6300
5E00
8000
ENDCHAR
STARTCHAR Ugrave
ENCODING 217
SWIDTH 722 0
DWIDTH 10 0
BBX 9 14 0 0
BITMAP
1000
1800
0400
0000
F380
6100
6100
6100
6100
6100
6100
6100
7300
3E00
ENDCHAR
STARTCHAR Uacute
ENCODING 218
SWIDTH 722 0
DWIDTH 10 0
BBX 9 14 0 0
BITMAP
0400
0C00
1000
0000
F380
6100
6100
6100
6100
6100
6100
6100
7300
3E00
ENDCHAR
STARTCHAR Ucircumflex
ENCODING 219
SWIDTH 722 0
DWIDTH 10 0
BBX 9 14 0 0
BITMAP
0800
1C00
2200
0000
F380
6100
6100
6100
6100
6100
6100
6100
7300
3E00
ENDCHAR
STARTCHAR Udieresis
ENCODING 220
SWIDTH 722 0
DWIDTH 10 0
BBX 9 13 0 0
BITMAP
1200
1200
0000
F380
6100
6100
6100
6100
6100
6100
6100
7300
3E00
ENDCHAR
STARTCHAR Yacute
ENCODING 221
SWIDTH 722 0
DWIDTH 10 0
BBX 10 14 0 0
BITMAP
0100
0300
0400
0000
F9C0
7080
3100
3900
1A00
1E00
0C00
0C00
0C00
1E00
ENDCHAR
STARTCHAR Thorn
ENCODING 222
SWIDTH 611 0
DWIDTH 9 0
BBX 8 10 0 0
BITMAP
F0
60
7E
67
63
63
63
7E
60
F0
ENDCHAR
STARTCHAR germandbls
ENCODING 223
SWIDTH 556 0
DWIDTH 8 0
BBX 7 10 0 0
BITMAP
38
6C
64
6C
78
6C
66
66
66
EC
ENDCHAR
STARTCHAR agrave
ENCODING 224
SWIDTH 500 0
DWIDTH 7 0
BBX 7 11 0 0
BITMAP
20
30
08
00
78
CC
0C
7C
CC
CC
76
ENDCHAR
STARTCHAR aacute
ENCODING 225
SWIDTH 500 0
DWIDTH 7 0
BBX 7 11 0 0
BITMAP
08
18
20
00
78
CC
0C
7C
CC
CC
76
ENDCHAR
STARTCHAR acircumflex
ENCODING 226
SWIDTH 500 0
DWIDTH 7 0
BBX 7 11 0 0
BITMAP
10
38
44
00
78
CC
0C
7C
CC
CC
76
ENDCHAR
STARTCHAR atilde
ENCODING 227
SWIDTH 500 0
DWIDTH 7 0
BBX 7 10 0 0
BITMAP
34
58
00
78
CC
0C
7C
CC
CC
76
ENDCHAR
STARTCHAR adieresis
ENCODING 228
SWIDTH 500 0
DWIDTH 7 0
BBX 7 10 0 0
BITMAP
28
28
00
78
CC
0C
7C
CC
CC
76
ENDCHAR
STARTCHAR aring
ENCODING 229
SWIDTH 500 0
DWIDTH 7 0
BBX 7 11 0 0
BITMAP
30
48
30
00
78
CC
0C
7C
CC
CC
76
ENDCHAR
STARTCHAR ae
ENCODING 230
SWIDTH 722 0
DWIDTH 11 0
BBX 10 7 0 0
BITMAP
7B80
CCC0
CCC0
3FC0
CC00
CCC0
7780
ENDCHAR
STARTCHAR ccedilla
ENCODING 231
SWIDTH 444 0
DWIDTH 7 0
BBX 6 10 0 -3
BITMAP
38
4C
CC
C0
C0
E4
78
20
10
70
ENDCHAR
STARTCHAR egrave
ENCODING 232
SWIDTH 444 0
DWIDTH 7 0
BBX 6 11 0 0
BITMAP
40
60
10
00
38
4C
CC
FC
C0
E4
78
ENDCHAR
STARTCHAR eacute
ENCODING 233
SWIDTH 444 0
DWIDTH 7 0
BBX 6 11 0 0
BITMAP
08
18
20
00
38
4C
CC
FC
C0
E4
78
ENDCHAR
STARTCHAR ecircumflex
ENCODING 234
SWIDTH 444 0
DWIDTH 7 0
BBX 6 11 0 0
BITMAP
10
38
44
00
38
4C
CC
FC
C0
E4
78
ENDCHAR
STARTCHAR edieresis
ENCODING 235
SWIDTH 444 0
DWIDTH 7 0
BBX 6 10 0 0
BITMAP
50
50
00
38
4C
CC
FC
C0
E4
78
ENDCHAR
STARTCHAR igrave
ENCODING 236
SWIDTH 278 0
DWIDTH 4 0
BBX 4 11 0 0
BITMAP
80
C0
20
00
E0
60
60
60
60
60
F0
ENDCHAR
STARTCHAR iacute
ENCODING 237
SWIDTH 278 0
DWIDTH 4 0
BBX 4 11 0 0
BITMAP
20
60
80
00
E0
60
60
60
60
60
F0
ENDCHAR
STARTCHAR icircumflex
ENCODING 238
SWIDTH 278 0
DWIDTH 4 0
BBX 5 11 0 0
BITMAP
20
70
88
00
E0
60
60
60
60
60
F0
ENDCHAR
STARTCHAR idieresis
ENCODING 239
SWIDTH 278 0
DWIDTH 4 0
BBX 4 10 0 0
BITMAP
A0
A0
00
E0
60
60
60
60
60
F0
ENDCHAR
STARTCHAR eth
ENCODING 240
SWIDTH 500 0
DWIDTH 7 0
BBX 6 10 0 0
BITMAP
CC
70
98
78
CC
CC
CC
CC
CC
78
ENDCHAR
STARTCHAR ntilde
ENCODING 241
SWIDTH 556 0
DWIDTH 8 0
BBX 8 10 0 0
BITMAP
34
58
00
EC
76
66
66
66
66
E7
ENDCHAR
STARTCHAR ograve
ENCODING 242
SWIDTH 500 0
DWIDTH 7 0
BBX 6 11 0 0
BITMAP
20
30
08
00
78
CC
CC
CC
CC
CC
78
ENDCHAR
STARTCHAR oacute
ENCODING 243
SWIDTH 500 0
DWIDTH 7 0
BBX 6 11 0 0
BITMAP
08
18
20
00
78
CC
CC
CC
CC
CC
78
ENDCHAR
STARTCHAR ocircumflex
ENCODING 244
SWIDTH 500 0
DWIDTH 7 0
BBX 6 11 0 0
BITMAP
20
70
88
00
78
CC
CC
CC
CC
CC
78
ENDCHAR
STARTCHAR otilde
ENCODING 245
SWIDTH 500 0
DWIDTH 7 0
BBX 6 10 0 0
BITMAP
68
B0
00
78
CC
CC
CC
CC
CC
78
ENDCHAR
STARTCHAR odieresis
ENCODING 246
SWIDTH 500 0
DWIDTH 7 0
BBX 6 10 0 0
BITMAP
50
50
00
78
CC
CC
CC
CC
CC
78
ENDCHAR
STARTCHAR divide
ENCODING 247
SWIDTH 570 0
DWIDTH 8 0
BBX 6 7 0 0
BITMAP
30
30
00
FC
00
30
30
ENDCHAR
STARTCHAR oslash
ENCODING 248
SWIDTH 500 0
DWIDTH 7 0
BBX 6 9 0 -1
BITMAP
04
78
CC
DC
EC
EC
CC
78
80
ENDCHAR
STARTCHAR ugrave
ENCODING 249
SWIDTH 556 0
DWIDTH 7 0
BBX 8 11 -1 0
BITMAP
20
30
08
00
EE
66
66
66
66
66
3B
ENDCHAR
STARTCHAR uacute
ENCODING 250
SWIDTH 556 0
DWIDTH 7 0
BBX 8 11 -1 0
BITMAP
04
0C
10
00
EE
66
66
66
66
66
3B
ENDCHAR
STARTCHAR ucircumflex
ENCODING 251
SWIDTH 556 0
DWIDTH 7 0
BBX 8 11 -1 0
BITMAP
10
38
44
00
EE
66
66
66
66
66
3B
ENDCHAR
STARTCHAR udieresis
ENCODING 252
SWIDTH 556 0
DWIDTH 7 0
BBX 8 10 -1 0
BITMAP
28
28
00
EE
66
66
66
66
66
3B
ENDCHAR
STARTCHAR yacute
ENCODING 253
SWIDTH 500 0
DWIDTH 7 0
BBX 8 14 -1 -3
BITMAP
02
06
08
00
F7
62
32
34
1C
1C
08
08
38
30
ENDCHAR
STARTCHAR thorn
ENCODING 254
SWIDTH 556 0
DWIDTH 8 0
BBX 7 13 0 -3
BITMAP
E0
60
60
6C
76
66
66
66
66
7C
60
60
F0
ENDCHAR
STARTCHAR ydieresis
ENCODING 255
SWIDTH 500 0
DWIDTH 7 0
BBX 8 13 -1 -3
BITMAP
22
22
00
F7
62
32
34
1C
1C
08
08
38
30
ENDCHAR
STARTCHAR Amacron
ENCODING 256
SWIDTH 722 0
DWIDTH 10 0
BBX 10 12 0 0
BITMAP
1E00
0000
0C00
0C00
1E00
1600
3300
2300
3F00
6180
4180
E3C0
ENDCHAR
STARTCHAR amacron
ENCODING 257
SWIDTH 500 0
DWIDTH 7 0
BBX 7 9 0 0
BITMAP
78
00
78
CC
0C
7C
CC
CC
76
ENDCHAR
STARTCHAR Abreve
ENCODING 258
SWIDTH 722 0
DWIDTH 10 0
BBX 10 13 0 0
BITMAP
1100
0E00
0000
0C00
0C00
1E00
1600
3300
2300
3F00
6180
4180
E3C0
ENDCHAR
STARTCHAR abreve
ENCODING 259
SWIDTH 500 0
DWIDTH 7 0
BBX 7 10 0 0
BITMAP
44
38
00
78
CC
0C
7C
CC
CC
76
ENDCHAR
STARTCHAR Aogonek
ENCODING 260
SWIDTH 722 0
DWIDTH 10 0
BBX 10 13 0 -3
BITMAP
0C00
0C00
1E00
1600
3300
2300
3F00
6180
4180
E3C0
0800
0A00
0600
ENDCHAR
STARTCHAR aogonek
ENCODING 261
SWIDTH 500 0
DWIDTH 7 0
BBX 7 10 0 -3
BITMAP
78
CC
0C
7C
CC
CC
76
10
14
0C
ENDCHAR
STARTCHAR Cacute
ENCODING 262
SWIDTH 722 0
DWIDTH 10 0
BBX 8 14 1 0
BITMAP
04
0C
10
00
3D
63
C1
C1
C0
C0
C0
C1
63
3E
ENDCHAR
STARTCHAR cacute
ENCODING 263
SWIDTH 444 0
DWIDTH 6 0
BBX 5 11 0 0
BITMAP
08
18
20
00
30
58
C8
C0
C0
E8
70
ENDCHAR
STARTCHAR Ccircumflex
ENCODING 264
SWIDTH 722 0
DWIDTH 10 0
BBX 8 14 1 0
BITMAP
08
1C
22
00
3D
63
C1
C1
C0
C0
C0
C1
63
3E
ENDCHAR
STARTCHAR ccircumflex
ENCODING 265
SWIDTH 444 0
DWIDTH 6 0
BBX 5 11 0 0
BITMAP
20
70
88
00
30
58
C8
C0
C0
E8
70
ENDCHAR
STARTCHAR Cdotaccent
ENCODING 266
SWIDTH 722 0
DWIDTH 10 0
BBX 8 13 1 0
BITMAP
08
08
00
3D
63
C1
C1
C0
C0
C0
C1
63
3E
ENDCHAR
STARTCHAR cdotaccent
ENCODING 267
SWIDTH 444 0
DWIDTH 6 0
BBX 5 10 0 0
BITMAP
20
20
00
30
58
C8
C0
C0
E8
70
ENDCHAR
STARTCHAR Ccaron
ENCODING 268
SWIDTH 722 0
DWIDTH 10 0
BBX 8 14 1 0
BITMAP
22
1C
08
00
3D
63
C1
C1
C0
C0
C0
C1
63
3E
ENDCHAR
STARTCHAR ccaron
ENCODING 269
SWIDTH 444 0
DWIDTH 6 0
BBX 5 11 0 0
BITMAP
88
70
20
00
30
58
C8
C0
C0
E8
70
ENDCHAR
STARTCHAR Dcaron
ENCODING 270
SWIDTH 722 0
DWIDTH 10 0
BBX 9 14 0 0
BITMAP
2200
1C00
0800
0000
FE00
6300
6180
6180
6180
6180
6180
6180
6300
FE00
ENDCHAR
STARTCHAR dcaron
ENCODING 271
SWIDTH 861 0
DWIDTH 11 0
BBX 10 10 0 0
BITMAP
1CC0
0CC0
0C40
7C80
CC00
CC00
CC00
CC00
CC00
7600
ENDCHAR
STARTCHAR Dcroat
ENCODING 272
SWIDTH 722 0
DWIDTH 11 0
BBX 9 10 1 0
BITMAP
FE00
6300
6180
6180
F180
6180
6180
6180
6300
FE00
ENDCHAR
STARTCHAR dcroat
ENCODING 273
SWIDTH 556 0
DWIDTH 7 0
BBX 7 10 0 0
BITMAP
1C
1E
0C
7C
CC
CC
CC
CC
CC
76
ENDCHAR
STARTCHAR Emacron
ENCODING 274
SWIDTH 667 0
DWIDTH 9 0
BBX 8 12 0 0
BITMAP
3C
00
FF
63
61
64
7C
64
60
61
63
FF
ENDCHAR
STARTCHAR emacron
ENCODING 275
SWIDTH 444 0
DWIDTH 6 0
BBX 6 9 0 0
BITMAP
78
00
38
4C
CC
FC
C0
E4
78
ENDCHAR
STARTCHAR Ebreve
ENCODING 276
SWIDTH 667 0
DWIDTH 9 0
BBX 8 13 0 0
BITMAP
22
1C
00
FF
63
61
64
7C
64
60
61
63
FF
ENDCHAR
STARTCHAR ebreve
ENCODING 277
SWIDTH 444 0
DWIDTH 6 0
BBX 6 10 0 0
BITMAP
44
38
00
38
4C
CC
FC
C0
E4
78
ENDCHAR
STARTCHAR Edotaccent
ENCODING 278
SWIDTH 667 0
DWIDTH 9 0
BBX 8 13 0 0
BITMAP
08
08
00
FF
63
61
64
7C
64
60
61
63
FF
ENDCHAR
STARTCHAR edotaccent
ENCODING 279
SWIDTH 444 0
DWIDTH 6 0
BBX 6 10 0 0
BITMAP
10
10
00
38
4C
CC
FC
C0
E4
78
ENDCHAR
STARTCHAR Eogonek
ENCODING 280
SWIDTH 667 0
DWIDTH 9 0
BBX 8 13 0 -3
BITMAP
FF
63
61
64
7C
64
60
61
63
FF
10
14
0C
ENDCHAR
STARTCHAR eogonek
ENCODING 281
SWIDTH 444 0
DWIDTH 6 0
BBX 6 10 0 -3
BITMAP
38
4C
CC
FC
C0
E4
78
20
28
18
ENDCHAR
STARTCHAR Ecaron
ENCODING 282
SWIDTH 667 0
DWIDTH 9 0
BBX 8 14 0 0
BITMAP
22
1C
08
00
FF
63
61
64
7C
64
60
61
63
FF
ENDCHAR
STARTCHAR ecaron
ENCODING 283
SWIDTH 444 0
DWIDTH 6 0
BBX 6 11 0 0
BITMAP
44
38
10
00
38
4C
CC
FC
C0
E4
78
ENDCHAR
STARTCHAR Gcircumflex
ENCODING 284
SWIDTH 778 0
DWIDTH 11 0
BBX 9 14 1 0
BITMAP
0800
1C00
2200
0000
3D00
6300
C100
C100
C000
C780
C300
C300
6300
3E00
ENDCHAR
STARTCHAR gcircumflex
ENCODING 285
SWIDTH 500 0
DWIDTH 7 0
BBX 7 14 0 -3
BITMAP
10
38
44
00
7E
CC
CC
CC
78
40
7C
FE
82
7C
ENDCHAR
STARTCHAR Gbreve
ENCODING 286
SWIDTH 778 0
DWIDTH 11 0
BBX 9 13 1 0
BITMAP
2200
1C00
0000
3D00
6300
C100
C100
C000
C780
C300
C300
6300
3E00
ENDCHAR
STARTCHAR gbreve
ENCODING 287
SWIDTH 500 0
DWIDTH 7 0
BBX 7 13 0 -3
BITMAP
44
38
00
7E
CC
CC
CC
78
40
7C
FE
82
7C
ENDCHAR
STARTCHAR Gdotaccent
ENCODING 288
SWIDTH 778 0
DWIDTH 11 0
BBX 9 13 1 0
BITMAP
0800
0800
0000
3D00
6300
C100
C100
C000
C780
C300
C300
6300
3E00
ENDCHAR
STARTCHAR gdotaccent
ENCODING 289
SWIDTH 500 0
DWIDTH 7 0
BBX 7 13 0 -3
BITMAP
10
10
00
7E
CC
CC
CC
78
40
7C
FE
82
7C
ENDCHAR
STARTCHAR Gcommaaccent
ENCODING 290
SWIDTH 778 0
DWIDTH 11 0
BBX 9 15 1 -5
BITMAP
3D00
6300
C100
C100
C000
C780
C300
C300
6300
3E00
0000
1800
1800
0800
1000
ENDCHAR
STARTCHAR gcommaaccent
ENCODING 291
SWIDTH 500 0
DWIDTH 7 0
BBX 7 15 0 -3
BITMAP
10
20
30
30
00
7E
CC
CC
CC
78
40
7C
FE
82
7C
ENDCHAR
STARTCHAR Hcircumflex
ENCODING 292
SWIDTH 778 0
DWIDTH 11 0
BBX 10 14 0 0
BITMAP
0400
0E00
1100
0000
F3C0
6180
6180
6180
7F80
6180
6180
6180
6180
F3C0
ENDCHAR
STARTCHAR hcircumflex
ENCODING 293
SWIDTH 556 0
DWIDTH 8 0
BBX 8 14 0 0
BITMAP
20
70
88
00
E0
60
60
6C
76
66
66
66
66
E7
ENDCHAR
STARTCHAR Hbar
ENCODING 294
SWIDTH 778 0
DWIDTH 11 0
BBX 10 10 0 0
BITMAP
F3C0
6180
FFC0
6180
7F80
6180
6180
6180
6180
F3C0
ENDCHAR
STARTCHAR hbar
ENCODING 295
SWIDTH 556 0
DWIDTH 8 0
BBX 8 10 0 0
BITMAP
E0
F0
60
6C
76
66
66
66
66
E7
ENDCHAR
STARTCHAR Itilde
ENCODING 296
SWIDTH 389 0
DWIDTH 5 0
BBX 5 13 0 0
BITMAP
68
B0
00
F0
60
60
60
60
60
60
60
60
F0
ENDCHAR
STARTCHAR itilde
ENCODING 297
SWIDTH 278 0
DWIDTH 4 0
BBX 5 10 0 0
BITMAP
68
B0
00
E0
60
60
60
60
60
F0
ENDCHAR
STARTCHAR Imacron
ENCODING 298
SWIDTH 389 0
DWIDTH 5 0
BBX 4 12 0 0
BITMAP
F0
00
F0
60
60
60
60
60
60
60
60
F0
ENDCHAR
STARTCHAR imacron
ENCODING 299
SWIDTH 278 0
DWIDTH 4 0
BBX 4 9 0 0
BITMAP
F0
00
E0
60
60
60
60
60
F0
ENDCHAR
STARTCHAR Ibreve
ENCODING 300
SWIDTH 389 0
DWIDTH 5 0
BBX 5 13 0 0
BITMAP
88
70
00
F0
60
60
60
60
60
60
60
60
F0
ENDCHAR
STARTCHAR ibreve
ENCODING 301
SWIDTH 278 0
DWIDTH 4 0
BBX 5 10 -1 0
BITMAP
88
70
00
70
30
30
30
30
30
78
ENDCHAR
STARTCHAR Iogonek
ENCODING 302
SWIDTH 389 0
DWIDTH 5 0
BBX 4 13 0 -3
BITMAP
F0
60
60
60
60
60
60
60
60
F0
40
50
30
ENDCHAR
STARTCHAR iogonek
ENCODING 303
SWIDTH 278 0
DWIDTH 4 0
BBX 4 13 0 -3
BITMAP
60
60
00
E0
60
60
60
60
60
F0
40
50
30
ENDCHAR
STARTCHAR Idotaccent
ENCODING 304
SWIDTH 389 0
DWIDTH 5 0
BBX 4 13 0 0
BITMAP
20
20
00
F0
60
60
60
60
60
60
60
60
F0
ENDCHAR
STARTCHAR dotlessi
ENCODING 305
SWIDTH 278 0
DWIDTH 4 0
BBX 4 7 0 0
BITMAP
E0
60
60
60
60
60
F0
ENDCHAR
STARTCHAR IJ
ENCODING 306
SWIDTH 870 0
DWIDTH 12 0
BBX 11 11 0 -1
BITMAP
F1E0
60C0
60C0
60C0
60C0
60C0
60C0
60C0
66C0
F6C0
0380
ENDCHAR
STARTCHAR ij
ENCODING 307
SWIDTH 597 0
DWIDTH 8 0
BBX 7 13 0 -3
BITMAP
66
66
00
EE
66
66
66
66
66
F6
06
16
1C
ENDCHAR
STARTCHAR Jcircumflex
ENCODING 308
SWIDTH 500 0
DWIDTH 7 0
BBX 6 15 0 -1
BITMAP
10
38
44
00
3C
18
18
18
18
18
18
18
D8
D8
70
ENDCHAR
STARTCHAR jcircumflex
ENCODING 309
SWIDTH 333 0
DWIDTH 4 0
BBX 5 14 -1 -3
BITMAP
20
70
88
00
70
30
30
30
30
30
30
30
B0
E0
ENDCHAR
STARTCHAR Kcommaaccent
ENCODING 310
SWIDTH 778 0
DWIDTH 11 0
BBX 10 15 1 -5
BITMAP
F7C0
6300
6200
6400
7800
7C00
6E00
6700
6380
F7C0
0000
0C00
0C00
0400
0800
ENDCHAR
STARTCHAR kcommaaccent
ENCODING 311
SWIDTH 556 0
DWIDTH 8 0
BBX 8 15 0 -5
BITMAP
E0
60
60
6E
64
68
78
6C
66
E7
00
18
18
08
10
ENDCHAR
STARTCHAR kgreenlandic
ENCODING 312
SWIDTH 556 0
DWIDTH 8 0
BBX 8 7 0 0
BITMAP
6E
64
68
78
6C
66
E7
ENDCHAR
STARTCHAR Lacute
ENCODING 313
SWIDTH 667 0
DWIDTH 9 0
BBX 8 14 0 0
BITMAP
08
18
20
00
F0
60
60
60
60
60
61
61
63
FF
ENDCHAR
STARTCHAR lacute
ENCODING 314
SWIDTH 278 0
DWIDTH 4 0
BBX 4 14 0 0
BITMAP
10
30
40
00
E0
60
60
60
60
60
60
60
60
F0
ENDCHAR
STARTCHAR Lcommaaccent
ENCODING 315
SWIDTH 667 0
DWIDTH 9 0
BBX 8 15 0 -5
BITMAP
F0
60
60
60
60
60
61
61
63
FF
00
18
18
08
10
ENDCHAR
STARTCHAR lcommaaccent
ENCODING 316
SWIDTH 278 0
DWIDTH 4 0
BBX 4 15 0 -5
BITMAP
E0
60
60
60
60
60
60
60
60
F0
00
60
60
20
40
ENDCHAR
STARTCHAR Lcaron
ENCODING 317
SWIDTH 967 0
DWIDTH 13 0
BBX 12 10 0 0
BITMAP
F030
6030
6010
6020
6000
6000
6100
6100
6300
FF00
ENDCHAR
STARTCHAR lcaron
ENCODING 318
SWIDTH 597 0
DWIDTH 8 0
BBX 7 10 0 0
BITMAP
E6
66
62
64
60
60
60
60
60
F0
ENDCHAR
STARTCHAR Ldot
ENCODING 319
SWIDTH 884 0
DWIDTH 13 0
BBX 11 10 0 0
BITMAP
F000
6000
6000
6000
6060
6060
6100
6100
6300
FF00
ENDCHAR
STARTCHAR ldot
ENCODING 320
SWIDTH 514 0
DWIDTH 8 0
BBX 6 10 0 0
BITMAP
E0
60
60
60
6C
6C
60
60
60
F0
ENDCHAR
STARTCHAR Lslash
ENCODING 321
SWIDTH 667 0
DWIDTH 9 0
BBX 8 10 0 0
BITMAP
F0
60
60
68
70
E0
61
61
63
FF
ENDCHAR
STARTCHAR lslash
ENCODING 322
SWIDTH 278 0
DWIDTH 4 0
BBX 4 10 0 0
BITMAP
E0
60
60
70
60
E0
60
60
60
F0
ENDCHAR
STARTCHAR Nacute
ENCODING 323
SWIDTH 722 0
DWIDTH 10 0
BBX 10 14 0 0
BITMAP
0200
0600
0800
0000
E1C0
7080
7080
5880
4C80
4C80
4680
4380
4380
E180
ENDCHAR
STARTCHAR nacute
ENCODING 324
SWIDTH 556 0
DWIDTH 8 0
BBX 8 11 0 0
BITMAP
04
0C
10
00
EC
76
66
66
66
66
E7
ENDCHAR
STARTCHAR Ncommaaccent
ENCODING 325
SWIDTH 722 0
DWIDTH 10 0
BBX 10 15 0 -5
BITMAP
E1C0
7080
7080
5880
4C80
4C80
4680
4380
4380
E180
0000
0C00
0C00
0400
0800
ENDCHAR
STARTCHAR ncommaaccent
ENCODING 326
SWIDTH 556 0
DWIDTH 8 0
BBX 8 12 0 -5
BITMAP
EC
76
66
66
66
66
E7
00
18
18
08
10
ENDCHAR
STARTCHAR Ncaron
ENCODING 327
SWIDTH 722 0
DWIDTH 10 0
BBX 10 14 0 0
BITMAP
2200
1C00
0800
0000
E1C0
7080
7080
5880
4C80
4C80
4680
4380
4380
E180
ENDCHAR
STARTCHAR ncaron
ENCODING 328
SWIDTH 556 0
DWIDTH 8 0
BBX 8 11 0 0
BITMAP
44
38
10
00
EC
76
66
66
66
66
E7
ENDCHAR
STARTCHAR napostrophe
ENCODING 329
SWIDTH 872 0
DWIDTH 12 0
BBX 11 10 1 0
BITMAP
C000
C000
4000
9D80
0EC0
0CC0
0CC0
0CC0
0CC0
1CE0
ENDCHAR
STARTCHAR Eng
ENCODING 330
SWIDTH 722 0
DWIDTH 10 0
BBX 10 13 0 -3
BITMAP
E1C0
7080
7080
5880
4C80
4C80
4680
4380
4380
E180
0180
0580
0700
ENDCHAR
STARTCHAR eng
ENCODING 331
SWIDTH 556 0
DWIDTH 8 0
BBX 7 10 0 -3
BITMAP
EC
76
66
66
66
66
E6
06
16
1C
ENDCHAR
STARTCHAR Omacron
ENCODING 332
SWIDTH 778 0
DWIDTH 11 0
BBX 9 12 1 0
BITMAP
1E00
0000
3E00
6300
C180
C180
C180
C180
C180
C180
6300
3E00
ENDCHAR
STARTCHAR omacron
ENCODING 333
SWIDTH 500 0
DWIDTH 7 0
BBX 6 9 0 0
BITMAP
78
00
78
CC
CC
CC
CC
CC
78
ENDCHAR
STARTCHAR Obreve
ENCODING 334
SWIDTH 778 0
DWIDTH 11 0
BBX 9 13 1 0
BITMAP
2200
1C00
0000
3E00
6300
C180
C180
C180
C180
C180
C180
6300
3E00
ENDCHAR
STARTCHAR obreve
ENCODING 335
SWIDTH 500 0
DWIDTH 7 0
BBX 6 10 0 0
BITMAP
44
38
00
78
CC
CC
CC
CC
CC
78
ENDCHAR
STARTCHAR Ohungarumlaut
ENCODING 336
SWIDTH 778 0
DWIDTH 11 0
BBX 9 14 1 0
BITMAP
0900
1B00
2400
0000
3E00
6300
C180
C180
C180
C180
C180
C180
6300
3E00
ENDCHAR
STARTCHAR ohungarumlaut
ENCODING 337
SWIDTH 500 0
DWIDTH 7 0
BBX 7 11 0 0
BITMAP
12
36
48
00
78
CC
CC
CC
CC
CC
78
ENDCHAR
STARTCHAR OE
ENCODING 338
SWIDTH 1000 0
DWIDTH 14 0
BBX 13 10 0 0
BITMAP
3DF8
6718
C308
C320
C3E0
C320
C328
C308
6718
3DF8
ENDCHAR
STARTCHAR oe
ENCODING 339
SWIDTH 722 0
DWIDTH 10 0
BBX 9 7 0 0
BITMAP
7F00
D980
D980
DF80
D800
D980
7F00
ENDCHAR
STARTCHAR Racute
ENCODING 340
SWIDTH 722 0
DWIDTH 10 0
BBX 10 14 0 0
BITMAP
0200
0600
0800
0000
FE00
6700
6300
6300
6600
7C00
6E00
6700
6380
F1C0
ENDCHAR
STARTCHAR racute
ENCODING 341
SWIDTH 444 0
DWIDTH 6 0
BBX 6 11 0 0
BITMAP
08
18
20
00
DC
6C
60
60
60
60
F0
ENDCHAR
STARTCHAR Rcommaaccent
ENCODING 342
SWIDTH 722 0
DWIDTH 10 0
BBX 10 15 0 -5
BITMAP
FE00
6700
6300
6300
6600
7C00
6E00
6700
6380
F1C0
0000
0C00
0C00
0400
0800
ENDCHAR
STARTCHAR rcommaaccent
ENCODING 343
SWIDTH 444 0
DWIDTH 6 0
BBX 6 12 0 -5
BITMAP
DC
6C
60
60
60
60
F0
00
60
60
20
40
ENDCHAR
STARTCHAR Rcaron
ENCODING 344
SWIDTH 722 0
DWIDTH 10 0
BBX 10 14 0 0
BITMAP
2200
1C00
0800
0000
FE00
6700
6300
6300
6600
7C00
6E00
6700
6380
F1C0
ENDCHAR
STARTCHAR rcaron
ENCODING 345
SWIDTH 444 0
DWIDTH 6 0
BBX 6 11 0 0
BITMAP
44
38
10
00
DC
6C
60
60
60
60
F0
ENDCHAR
STARTCHAR Sacute
ENCODING 346
SWIDTH 556 0
DWIDTH 8 0
BBX 7 14 0 0
BITMAP
04
0C
10
00
7A
C6
C2
E0
78
1C
0E
86
C6
FC
ENDCHAR
STARTCHAR sacute
ENCODING 347
SWIDTH 389 0
DWIDTH 6 0
BBX 5 11 0 0
BITMAP
08
18
20
00
78
C8
E0
70
38
98
F0
ENDCHAR
STARTCHAR Scircumflex
ENCODING 348
SWIDTH 556 0
DWIDTH 8 0
BBX 7 14 0 0
BITMAP
10
38
44
00
7A
C6
C2
E0
78
1C
0E
86
C6
FC
ENDCHAR
STARTCHAR scircumflex
ENCODING 349
SWIDTH 389 0
DWIDTH 6 0
BBX 5 11 0 0
BITMAP
20
70
88
00
78
C8
E0
70
38
98
F0
ENDCHAR
STARTCHAR Scedilla
ENCODING 350
SWIDTH 556 0
DWIDTH 8 0
BBX 7 13 0 -3
BITMAP
7A
C6
C2
E0
78
1C
0E
86
C6
FC
10
08
38
ENDCHAR
STARTCHAR scedilla
ENCODING 351
SWIDTH 389 0
DWIDTH 6 0
BBX 5 10 0 -3
BITMAP
78
C8
E0
70
38
98
F0
20
10
70
ENDCHAR
STARTCHAR Scaron
ENCODING 352
SWIDTH 556 0
DWIDTH 8 0
BBX 7 14 0 0
BITMAP
44
38
10
00
7A
C6
C2
E0
78
1C
0E
86
C6
FC
ENDCHAR
STARTCHAR scaron
ENCODING 353
SWIDTH 389 0
DWIDTH 6 0
BBX 5 11 0 0
BITMAP
88
70
20
00
78
C8
E0
70
38
98
F0
ENDCHAR
STARTCHAR Tcommaaccent
ENCODING 354
SWIDTH 667 0
DWIDTH 9 0
BBX 8 13 0 -3
BITMAP
FF
DB
99
18
18
18
18
18
18
3C
08
04
1C
ENDCHAR
STARTCHAR tcommaaccent
ENCODING 355
SWIDTH 333 0
DWIDTH 5 0
BBX 5 12 0 -3
BITMAP
20
60
F0
60
60
60
68
70
30
20
10
70
ENDCHAR
STARTCHAR Tcaron
ENCODING 356
SWIDTH 667 0
DWIDTH 9 0
BBX 8 14 0 0
BITMAP
22
1C
08
00
FF
DB
99
18
18
18
18
18
18
3C
ENDCHAR
STARTCHAR tcaron
ENCODING 357
SWIDTH 649 0
DWIDTH 9 0
BBX 8 10 0 0
BITMAP
03
23
61
F2
60
60
60
68
70
30
ENDCHAR
STARTCHAR Tbar
ENCODING 358
SWIDTH 667 0
DWIDTH 9 0
BBX 8 10 0 0
BITMAP
FF
DB
99
18
3C
18
18
18
18
3C
ENDCHAR
STARTCHAR tbar
ENCODING 359
SWIDTH 333 0
DWIDTH 5 0
BBX 5 9 0 0
BITMAP
20
60
F0
60
60
78
68
70
30
ENDCHAR
STARTCHAR Utilde
ENCODING 360
SWIDTH 722 0
DWIDTH 10 0
BBX 9 13 0 0
BITMAP
1A00
2C00
0000
F380
6100
6100
6100
6100
6100
6100
6100
7300
3E00
ENDCHAR
STARTCHAR utilde
ENCODING 361
SWIDTH 556 0
DWIDTH 7 0
BBX 8 10 -1 0
BITMAP
1A
2C
00
EE
66
66
66
66
66
3B
ENDCHAR
STARTCHAR Umacron
ENCODING 362
SWIDTH 722 0
DWIDTH 10 0
BBX 9 12 0 0
BITMAP
3C00
0000
F380
6100
6100
6100
6100
6100
6100
6100
7300
3E00
ENDCHAR
STARTCHAR umacron
ENCODING 363
SWIDTH 556 0
DWIDTH 7 0
BBX 8 9 -1 0
BITMAP
3C
00
EE
66
66
66
66
66
3B
ENDCHAR
STARTCHAR Ubreve
ENCODING 364
SWIDTH 722 0
DWIDTH 10 0
BBX 9 13 0 0
BITMAP
2200
1C00
0000
F380
6100
6100
6100
6100
6100
6100
6100
7300
3E00
ENDCHAR
STARTCHAR ubreve
ENCODING 365
SWIDTH 556 0
DWIDTH 7 0
BBX 8 10 -1 0
BITMAP
44
38
00
EE
66
66
66
66
66
3B
ENDCHAR
STARTCHAR Uring
ENCODING 366
SWIDTH 722 0
DWIDTH 10 0
BBX 9 14 0 0
BITMAP
1800
2400
1800
0000
F380
6100
6100
6100
6100
6100
6100
6100
7300
3E00
ENDCHAR
STARTCHAR uring
ENCODING 367
SWIDTH 556 0
DWIDTH 7 0
BBX 8 11 -1 0
BITMAP
18
24
18
00
EE
66
66
66
66
66
3B
ENDCHAR
STARTCHAR Uhungarumlaut
ENCODING 368
SWIDTH 722 0
DWIDTH 10 0
BBX 9 14 0 0
BITMAP
0900
1B00
2400
0000
F380
6100
6100
6100
6100
6100
6100
6100
7300
3E00
ENDCHAR
STARTCHAR uhungarumlaut
ENCODING 369
SWIDTH 556 0
DWIDTH 7 0
BBX 8 11 -1 0
BITMAP
12
36
48
00
EE
66
66
66
66
66
3B
ENDCHAR
STARTCHAR Uogonek
ENCODING 370
SWIDTH 722 0
DWIDTH 10 0
BBX 9 13 0 -3
BITMAP
F380
6100
6100
6100
6100
6100
6100
6100
7300
3E00
0800
0A00
0600
ENDCHAR
STARTCHAR uogonek
ENCODING 371
SWIDTH 556 0
DWIDTH 7 0
BBX 8 10 -1 -3
BITMAP
EE
66
66
66
66
66
3B
08
0A
06
ENDCHAR
STARTCHAR Wcircumflex
ENCODING 372
SWIDTH 1000 0
DWIDTH 14 0
BBX 15 14 -1 0
BITMAP
0100
0380
0440
0000
F79E
630C
6308
3188
3190
3390
1AD0
1CE0
0C60
0C60
ENDCHAR
STARTCHAR wcircumflex
ENCODING 373
SWIDTH 722 0
DWIDTH 10 0
BBX 10 11 0 0
BITMAP
0800
1C00
2200
0000
EEC0
6480
7680
3700
3B00
3B00
1200
ENDCHAR
STARTCHAR Ycircumflex
ENCODING 374
SWIDTH 722 0
DWIDTH 10 0
BBX 10 14 0 0
BITMAP
0800
1C00
2200
0000
F9C0
7080
3100
3900
1A00
1E00
0C00
0C00
0C00
1E00
ENDCHAR
STARTCHAR ycircumflex
ENCODING 375
SWIDTH 500 0
DWIDTH 7 0
BBX 8 14 -1 -3
BITMAP
10
38
44
00
F7
62
32
34
1C
1C
08
08
38
30
ENDCHAR
STARTCHAR Ydieresis
ENCODING 376
SWIDTH 722 0
DWIDTH 10 0
BBX 10 13 0 0
BITMAP
1400
1400
0000
F9C0
7080
3100
3900
1A00
1E00
0C00
0C00
0C00
1E00
ENDCHAR
STARTCHAR Zacute
ENCODING 377
SWIDTH 667 0
DWIDTH 9 0
BBX 8 14 0 0
BITMAP
04
0C
10
00
FF
C7
86
8C
18
18
31
61
E3
FF
ENDCHAR
STARTCHAR zacute
ENCODING 378
SWIDTH 444 0
DWIDTH 6 0
BBX 6 11 0 0
BITMAP
08
18
20
00
FC
9C
18
30
64
E4
FC
ENDCHAR
STARTCHAR Zdotaccent
ENCODING 379
SWIDTH 667 0
DWIDTH 9 0
BBX 8 13 0 0
BITMAP
08
08
00
FF
C7
86
8C
18
18
31
61
E3
FF
ENDCHAR
STARTCHAR zdotaccent
ENCODING 380
SWIDTH 444 0
DWIDTH 6 0
BBX 6 10 0 0
BITMAP
10
10
00
FC
9C
18
30
64
E4
FC
ENDCHAR
STARTCHAR Zcaron
ENCODING 381
SWIDTH 667 0
DWIDTH 9 0
BBX 8 14 0 0
BITMAP
44
38
10
00
FF
C7
86
8C
18
18
31
61
E3
FF
ENDCHAR
STARTCHAR zcaron
ENCODING 382
SWIDTH 444 0
DWIDTH 7 0
BBX 6 11 0 0
BITMAP
88
70
20
00
FC
9C
18
30
64
E4
FC
ENDCHAR
STARTCHAR uni0186
ENCODING 390
SWIDTH 722 0
DWIDTH 10 0
BBX 8 10 1 0
BITMAP
7C
C6
83
03
03
03
83
83
C6
BC
ENDCHAR
STARTCHAR uni0189
ENCODING 393
SWIDTH 722 0
DWIDTH 11 0
BBX 9 10 1 0
BITMAP
FE00
6300
6180
6180
F180
6180
6180
6180
6300
FE00
ENDCHAR
STARTCHAR uni018E
ENCODING 398
SWIDTH 667 0
DWIDTH 9 0
BBX 8 10 0 0
BITMAP
FF
C6
86
06
26
3E
26
86
C6
FF
ENDCHAR
STARTCHAR florin
ENCODING 402
SWIDTH 500 0
DWIDTH 7 0
BBX 7 14 0 -3
BITMAP
1C
36
30
30
FC
30
30
30
30
30
30
B0
F0
60
ENDCHAR
STARTCHAR uni0197
ENCODING 407
SWIDTH 389 0
DWIDTH 5 0
BBX 4 10 0 0
BITMAP
F0
60
60
60
F0
60
60
60
60
F0
ENDCHAR
STARTCHAR uni019A
ENCODING 410
SWIDTH 278 0
DWIDTH 4 0
BBX 4 10 0 0
BITMAP
E0
60
60
60
F0
60
60
60
60
F0
ENDCHAR
STARTCHAR uni019D
ENCODING 413
SWIDTH 722 0
DWIDTH 10 0
BBX 11 13 -1 -3
BITMAP
70E0
3840
3840
2C40
2640
2640
2340
31C0
31C0
30C0
3000
B000
E000
ENDCHAR
STARTCHAR uni019F
ENCODING 415
SWIDTH 778 0
DWIDTH 11 0
BBX 9 10 1 0
BITMAP
3E00
6300
C180
C180
FF80
C180
C180
C180
6300
3E00
ENDCHAR
STARTCHAR Ohorn
ENCODING 416
SWIDTH 778 0
DWIDTH 11 0
BBX 10 10 1 0
BITMAP
3EC0
63C0
C1C0
C180
C180
C180
C180
C180
6300
3E00
ENDCHAR
STARTCHAR ohorn
ENCODING 417
SWIDTH 500 0
DWIDTH 7 0
BBX 8 7 0 0
BITMAP
7B
CF
CD
CE
CC
CC
78
ENDCHAR
STARTCHAR uni01A7
ENCODING 423
SWIDTH 556 0
DWIDTH 8 0
BBX 7 10 0 0
BITMAP
BC
C6
86
0E
3C
70
E0
C2
C6
7E
ENDCHAR
STARTCHAR uni01A8
ENCODING 424
SWIDTH 389 0
DWIDTH 6 0
BBX 5 7 0 0
BITMAP
F0
98
38
70
E0
C8
78
ENDCHAR
STARTCHAR uni01AE
ENCODING 430
SWIDTH 667 0
DWIDTH 9 0
BBX 8 13 0 -3
BITMAP
FF
DB
99
18
18
18
18
18
18
18
18
1A
0E
ENDCHAR
STARTCHAR Uhorn
ENCODING 431
SWIDTH 722 0
DWIDTH 10 0
BBX 10 10 0 0
BITMAP
F3C0
61C0
6140
6180
6100
6100
6100
6100
7300
3E00
ENDCHAR
STARTCHAR uhorn
ENCODING 432
SWIDTH 556 0
DWIDTH 7 0
BBX 10 7 -1 0
BITMAP
EEC0
66C0
6640
6680
6600
6600
3B00
ENDCHAR
STARTCHAR uni01B5
ENCODING 437
SWIDTH 667 0
DWIDTH 9 0
BBX 8 10 0 0
BITMAP
FF
C7
86
8C
3C
18
31
61
E3
FF
ENDCHAR
STARTCHAR uni01B6
ENCODING 438
SWIDTH 444 0
DWIDTH 6 0
BBX 6 7 0 0
BITMAP
FC
9C
18
78
64
E4
FC
ENDCHAR
STARTCHAR uni01BB
ENCODING 443
SWIDTH 500 0
DWIDTH 7 0
BBX 6 10 0 0
BITMAP
38
7C
8C
0C
FC
18
30
40
FC
FC
ENDCHAR
STARTCHAR uni01BC
ENCODING 444
SWIDTH 500 0
DWIDTH 7 0
BBX 6 10 0 0
BITMAP
7C
7C
40
78
7C
0C
04
C4
CC
78
ENDCHAR
STARTCHAR uni01C0
ENCODING 448
SWIDTH 220 0
DWIDTH 3 0
BBX 1 12 1 -2
BITMAP
80
80
80
80
80
80
80
80
80
80
80
80
ENDCHAR
STARTCHAR uni01C2
ENCODING 450
SWIDTH 570 0
DWIDTH 8 0
BBX 7 12 0 -2
BITMAP
10
10
10
10
10
FE
10
FE
10
10
10
10
ENDCHAR
STARTCHAR uni01C3
ENCODING 451
SWIDTH 333 0
DWIDTH 4 0
BBX 2 10 1 0
BITMAP
C0
C0
C0
C0
C0
C0
C0
00
C0
C0
ENDCHAR
STARTCHAR uni01CD
ENCODING 461
SWIDTH 722 0
DWIDTH 10 0
BBX 10 14 0 0
BITMAP
1100
0E00
0400
0000
0C00
0C00
1E00
1600
3300
2300
3F00
6180
4180
E3C0
ENDCHAR
STARTCHAR uni01CE
ENCODING 462
SWIDTH 500 0
DWIDTH 7 0
BBX 7 11 0 0
BITMAP
44
38
10
00
78
CC
0C
7C
CC
CC
76
ENDCHAR
STARTCHAR uni01CF
ENCODING 463
SWIDTH 389 0
DWIDTH 5 0
BBX 5 14 0 0
BITMAP
88
70
20
00
F0
60
60
60
60
60
60
60
60
F0
ENDCHAR
STARTCHAR uni01D0
ENCODING 464
SWIDTH 278 0
DWIDTH 4 0
BBX 5 11 -1 0
BITMAP
88
70
20
00
70
30
30
30
30
30
78
ENDCHAR
STARTCHAR uni01D1
ENCODING 465
SWIDTH 778 0
DWIDTH 11 0
BBX 9 14 1 0
BITMAP
2200
1C00
0800
0000
3E00
6300
C180
C180
C180
C180
C180
C180
6300
3E00
ENDCHAR
STARTCHAR uni01D2
ENCODING 466
SWIDTH 500 0
DWIDTH 7 0
BBX 6 11 0 0
BITMAP
44
38
10
00
78
CC
CC
CC
CC
CC
78
ENDCHAR
STARTCHAR uni01D3
ENCODING 467
SWIDTH 722 0
DWIDTH 10 0
BBX 9 14 0 0
BITMAP
2200
1C00
0800
0000
F380
6100
6100
6100
6100
6100
6100
6100
7300
3E00
ENDCHAR
STARTCHAR uni01D4
ENCODING 468
SWIDTH 556 0
DWIDTH 7 0
BBX 8 11 -1 0
BITMAP
44
38
10
00
EE
66
66
66
66
66
3B
ENDCHAR
STARTCHAR uni01D5
ENCODING 469
SWIDTH 722 0
DWIDTH 10 0
BBX 9 15 0 0
BITMAP
1E00
0000
1200
1200
0000
F380
6100
6100
6100
6100
6100
6100
6100
7300
3E00
ENDCHAR
STARTCHAR uni01D6
ENCODING 470
SWIDTH 556 0
DWIDTH 7 0
BBX 8 12 -1 0
BITMAP
3C
00
28
28
00
EE
66
66
66
66
66
3B
ENDCHAR
STARTCHAR uni01D7
ENCODING 471
SWIDTH 722 0
DWIDTH 10 0
BBX 9 17 0 0
BITMAP
0200
0600
0800
0000
1200
1200
0000
F380
6100
6100
6100
6100
6100
6100
6100
7300
3E00
ENDCHAR
STARTCHAR uni01D8
ENCODING 472
SWIDTH 556 0
DWIDTH 7 0
BBX 8 14 -1 0
BITMAP
04
0C
10
00
28
28
00
EE
66
66
66
66
66
3B
ENDCHAR
STARTCHAR uni01D9
ENCODING 473
SWIDTH 722 0
DWIDTH 10 0
BBX 9 17 0 0
BITMAP
2200
1C00
0800
0000
1200
1200
0000
F380
6100
6100
6100
6100
6100
6100
6100
7300
3E00
ENDCHAR
STARTCHAR uni01DA
ENCODING 474
SWIDTH 556 0
DWIDTH 7 0
BBX 8 14 -1 0
BITMAP
44
38
10
00
28
28
00
EE
66
66
66
66
66
3B
ENDCHAR
STARTCHAR uni01DB
ENCODING 475
SWIDTH 722 0
DWIDTH 10 0
BBX 9 17 0 0
BITMAP
2000
3000
0800
0000
1200
1200
0000
F380
6100
6100
6100
6100
6100
6100
6100
7300
3E00
ENDCHAR
STARTCHAR uni01DC
ENCODING 476
SWIDTH 556 0
DWIDTH 7 0
BBX 8 14 -1 0
BITMAP
20
30
08
00
28
28
00
EE
66
66
66
66
66
3B
ENDCHAR
STARTCHAR uni01DD
ENCODING 477
SWIDTH 444 0
DWIDTH 6 0
BBX 6 7 0 0
BITMAP
78
9C
0C
FC
CC
C8
70
ENDCHAR
STARTCHAR uni01DE
ENCODING 478
SWIDTH 722 0
DWIDTH 10 0
BBX 10 15 0 0
BITMAP
1E00
0000
1200
1200
0000
0C00
0C00
1E00
1600
3300
2300
3F00
6180
4180
E3C0
ENDCHAR
STARTCHAR uni01DF
ENCODING 479
SWIDTH 500 0
DWIDTH 7 0
BBX 7 12 0 0
BITMAP
3C
00
28
28
00
78
CC
0C
7C
CC
CC
76
ENDCHAR
STARTCHAR uni01E0
ENCODING 480
SWIDTH 722 0
DWIDTH 10 0
BBX 10 15 0 0
BITMAP
1E00
0000
0400
0400
0000
0C00
0C00
1E00
1600
3300
2300
3F00
6180
4180
E3C0
ENDCHAR
STARTCHAR uni01E1
ENCODING 481
SWIDTH 500 0
DWIDTH 7 0
BBX 7 12 0 0
BITMAP
3C
00
10
10
00
78
CC
0C
7C
CC
CC
76
ENDCHAR
STARTCHAR uni01E2
ENCODING 482
SWIDTH 1000 0
DWIDTH 14 0
BBX 13 12 0 0
BITMAP
0780
0000
1FF8
0F18
0B08
1B20
13E0
3F20
2328
6308
4318
E7F8
ENDCHAR
STARTCHAR uni01E3
ENCODING 483
SWIDTH 722 0
DWIDTH 11 0
BBX 10 9 0 0
BITMAP
1E00
0000
7B80
CCC0
CCC0
3FC0
CC00
CCC0
7780
ENDCHAR
STARTCHAR uni01E4
ENCODING 484
SWIDTH 778 0
DWIDTH 11 0
BBX 9 10 1 0
BITMAP
3D00
6300
C100
C100
C000
C780
C300
C780
6300
3E00
ENDCHAR
STARTCHAR uni01E5
ENCODING 485
SWIDTH 500 0
DWIDTH 7 0
BBX 7 10 0 -3
BITMAP
7E
CC
CC
CC
78
40
7C
FE
82
7C
ENDCHAR
STARTCHAR Gcaron
ENCODING 486
SWIDTH 778 0
DWIDTH 11 0
BBX 9 14 1 0
BITMAP
2200
1C00
0800
0000
3D00
6300
C100
C100
C000
C780
C300
C300
6300
3E00
ENDCHAR
STARTCHAR gcaron
ENCODING 487
SWIDTH 500 0
DWIDTH 7 0
BBX 7 14 0 -3
BITMAP
44
38
10
00
7E
CC
CC
CC
78
40
7C
FE
82
7C
ENDCHAR
STARTCHAR uni01E8
ENCODING 488
SWIDTH 778 0
DWIDTH 11 0
BBX 10 14 1 0
BITMAP
2200
1C00
0800
0000
F7C0
6300
6200
6400
7800
7C00
6E00
6700
6380
F7C0
ENDCHAR
STARTCHAR uni01E9
ENCODING 489
SWIDTH 556 0
DWIDTH 8 0
BBX 8 14 0 0
BITMAP
88
70
20
00
E0
60
60
6E
64
68
78
6C
66
E7
ENDCHAR
STARTCHAR uni01EA
ENCODING 490
SWIDTH 778 0
DWIDTH 11 0
BBX 9 13 1 -3
BITMAP
3E00
6300
C180
C180
C180
C180
C180
C180
6300
3E00
0800
0A00
0600
ENDCHAR
STARTCHAR uni01EB
ENCODING 491
SWIDTH 500 0
DWIDTH 7 0
BBX 6 10 0 -3
BITMAP
78
CC
CC
CC
CC
CC
78
20
28
18
ENDCHAR
STARTCHAR uni01EC
ENCODING 492
SWIDTH 778 0
DWIDTH 11 0
BBX 9 15 1 -3
BITMAP
1E00
0000
3E00
6300
C180
C180
C180
C180
C180
C180
6300
3E00
0800
0A00
0600
ENDCHAR
STARTCHAR uni01ED
ENCODING 493
SWIDTH 500 0
DWIDTH 7 0
BBX 6 12 0 -3
BITMAP
78
00
78
CC
CC
CC
CC
CC
78
20
28
18
ENDCHAR
STARTCHAR uni01F0
ENCODING 496
SWIDTH 333 0
DWIDTH 4 0
BBX 5 14 -1 -3
BITMAP
88
70
20
00
70
30
30
30
30
30
30
30
B0
E0
ENDCHAR
STARTCHAR uni01F4
ENCODING 500
SWIDTH 778 0
DWIDTH 11 0
BBX 9 14 1 0
BITMAP
0200
0600
0800
0000
3D00
6300
C100
C100
C000
C780
C300
C300
6300
3E00
ENDCHAR
STARTCHAR uni01F5
ENCODING 501
SWIDTH 500 0
DWIDTH 7 0
BBX 7 14 0 -3
BITMAP
04
0C
10
00
7E
CC
CC
CC
78
40
7C
FE
82
7C
ENDCHAR
STARTCHAR uni01F8
ENCODING 504
SWIDTH 722 0
DWIDTH 10 0
BBX 10 14 0 0
BITMAP
2000
3000
0800
0000
E1C0
7080
7080
5880
4C80
4C80
4680
4380
4380
E180
ENDCHAR
STARTCHAR uni01F9
ENCODING 505
SWIDTH 556 0
DWIDTH 8 0
BBX 8 11 0 0
BITMAP
40
60
10
00
EC
76
66
66
66
66
E7
ENDCHAR
STARTCHAR Aringacute
ENCODING 506
SWIDTH 722 0
DWIDTH 10 0
BBX 10 18 0 0
BITMAP
0200
0600
0800
0000
0C00
1200
0C00
0000
0C00
0C00
1E00
1600
3300
2300
3F00
6180
4180
E3C0
ENDCHAR
STARTCHAR aringacute
ENCODING 507
SWIDTH 500 0
DWIDTH 7 0
BBX 7 15 0 0
BITMAP
08
18
20
00
30
48
30
00
78
CC
0C
7C
CC
CC
76
ENDCHAR
STARTCHAR AEacute
ENCODING 508
SWIDTH 1000 0
DWIDTH 14 0
BBX 13 14 0 0
BITMAP
0040
00C0
0100
0000
1FF8
0F18
0B08
1B20
13E0
3F20
2328
6308
4318
E7F8
ENDCHAR
STARTCHAR aeacute
ENCODING 509
SWIDTH 722 0
DWIDTH 11 0
BBX 10 11 0 0
BITMAP
0200
0600
0800
0000
7B80
CCC0
CCC0
3FC0
CC00
CCC0
7780
ENDCHAR
STARTCHAR Oslashacute
ENCODING 510
SWIDTH 778 0
DWIDTH 11 0
BBX 9 16 1 -1
BITMAP
0200
0600
0800
0000
0080
3D00
6300
C380
C580
C980
C980
D180
E180
6300
5E00
8000
ENDCHAR
STARTCHAR oslashacute
ENCODING 511
SWIDTH 500 0
DWIDTH 7 0
BBX 6 13 0 -1
BITMAP
08
18
20
00
04
78
CC
DC
EC
EC
CC
78
80
ENDCHAR
STARTCHAR uni0200
ENCODING 512
SWIDTH 722 0
DWIDTH 10 0
BBX 10 14 0 0
BITMAP
4800
6C00
1200
0000
0C00
0C00
1E00
1600
3300
2300
3F00
6180
4180
E3C0
ENDCHAR
STARTCHAR uni0201
ENCODING 513
SWIDTH 500 0
DWIDTH 7 0
BBX 7 11 0 0
BITMAP
90
D8
24
00
78
CC
0C
7C
CC
CC
76
ENDCHAR
STARTCHAR uni0202
ENCODING 514
SWIDTH 722 0
DWIDTH 10 0
BBX 10 13 0 0
BITMAP
0E00
1100
0000
0C00
0C00
1E00
1600
3300
2300
3F00
6180
4180
E3C0
ENDCHAR
STARTCHAR uni0203
ENCODING 515
SWIDTH 500 0
DWIDTH 7 0
BBX 7 10 0 0
BITMAP
38
44
00
78
CC
0C
7C
CC
CC
76
ENDCHAR
STARTCHAR uni0204
ENCODING 516
SWIDTH 667 0
DWIDTH 9 0
BBX 8 14 0 0
BITMAP
90
D8
24
00
FF
63
61
64
7C
64
60
61
63
FF
ENDCHAR
STARTCHAR uni0205
ENCODING 517
SWIDTH 444 0
DWIDTH 6 0
BBX 6 11 0 0
BITMAP
90
D8
24
00
38
4C
CC
FC
C0
E4
78
ENDCHAR
STARTCHAR uni0206
ENCODING 518
SWIDTH 667 0
DWIDTH 9 0
BBX 8 13 0 0
BITMAP
1C
22
00
FF
63
61
64
7C
64
60
61
63
FF
ENDCHAR
STARTCHAR uni0207
ENCODING 519
SWIDTH 444 0
DWIDTH 6 0
BBX 6 10 0 0
BITMAP
38
44
00
38
4C
CC
FC
C0
E4
78
ENDCHAR
STARTCHAR uni0208
ENCODING 520
SWIDTH 389 0
DWIDTH 5 0
BBX 6 14 -2 0
BITMAP
90
D8
24
00
3C
18
18
18
18
18
18
18
18
3C
ENDCHAR
STARTCHAR uni0209
ENCODING 521
SWIDTH 278 0
DWIDTH 4 0
BBX 6 11 -2 0
BITMAP
90
D8
24
00
38
18
18
18
18
18
3C
ENDCHAR
STARTCHAR uni020A
ENCODING 522
SWIDTH 389 0
DWIDTH 5 0
BBX 5 13 0 0
BITMAP
70
88
00
F0
60
60
60
60
60
60
60
60
F0
ENDCHAR
STARTCHAR uni020B
ENCODING 523
SWIDTH 278 0
DWIDTH 4 0
BBX 5 10 -1 0
BITMAP
70
88
00
70
30
30
30
30
30
78
ENDCHAR
STARTCHAR uni020C
ENCODING 524
SWIDTH 778 0
DWIDTH 11 0
BBX 9 14 1 0
BITMAP
4800
6C00
1200
0000
3E00
6300
C180
C180
C180
C180
C180
C180
6300
3E00
ENDCHAR
STARTCHAR uni020D
ENCODING 525
SWIDTH 500 0
DWIDTH 7 0
BBX 7 11 -1 0
BITMAP
90
D8
24
00
3C
66
66
66
66
66
3C
ENDCHAR
STARTCHAR uni020E
ENCODING 526
SWIDTH 778 0
DWIDTH 11 0
BBX 9 13 1 0
BITMAP
1C00
2200
0000
3E00
6300
C180
C180
C180
C180
C180
C180
6300
3E00
ENDCHAR
STARTCHAR uni020F
ENCODING 527
SWIDTH 500 0
DWIDTH 7 0
BBX 6 10 0 0
BITMAP
38
44
00
78
CC
CC
CC
CC
CC
78
ENDCHAR
STARTCHAR uni0210
ENCODING 528
SWIDTH 722 0
DWIDTH 10 0
BBX 10 14 0 0
BITMAP
4800
6C00
1200
0000
FE00
6700
6300
6300
6600
7C00
6E00
6700
6380
F1C0
ENDCHAR
STARTCHAR uni0211
ENCODING 529
SWIDTH 444 0
DWIDTH 6 0
BBX 6 11 0 0
BITMAP
90
D8
24
00
DC
6C
60
60
60
60
F0
ENDCHAR
STARTCHAR uni0212
ENCODING 530
SWIDTH 722 0
DWIDTH 10 0
BBX 10 13 0 0
BITMAP
1C00
2200
0000
FE00
6700
6300
6300
6600
7C00
6E00
6700
6380
F1C0
ENDCHAR
STARTCHAR uni0213
ENCODING 531
SWIDTH 444 0
DWIDTH 6 0
BBX 6 10 0 0
BITMAP
38
44
00
DC
6C
60
60
60
60
F0
ENDCHAR
STARTCHAR uni0214
ENCODING 532
SWIDTH 722 0
DWIDTH 10 0
BBX 9 14 0 0
BITMAP
4800
6C00
1200
0000
F380
6100
6100
6100
6100
6100
6100
6100
7300
3E00
ENDCHAR
STARTCHAR uni0215
ENCODING 533
SWIDTH 556 0
DWIDTH 7 0
BBX 8 11 -1 0
BITMAP
90
D8
24
00
EE
66
66
66
66
66
3B
ENDCHAR
STARTCHAR uni0216
ENCODING 534
SWIDTH 722 0
DWIDTH 10 0
BBX 9 13 0 0
BITMAP
1C00
2200
0000
F380
6100
6100
6100
6100
6100
6100
6100
7300
3E00
ENDCHAR
STARTCHAR uni0217
ENCODING 535
SWIDTH 556 0
DWIDTH 7 0
BBX 8 10 -1 0
BITMAP
38
44
00
EE
66
66
66
66
66
3B
ENDCHAR
STARTCHAR Scommaaccent
ENCODING 536
SWIDTH 556 0
DWIDTH 8 0
BBX 7 15 0 -5
BITMAP
7A
C6
C2
E0
78
1C
0E
86
C6
FC
00
30
30
10
20
ENDCHAR
STARTCHAR scommaaccent
ENCODING 537
SWIDTH 389 0
DWIDTH 6 0
BBX 5 12 0 -5
BITMAP
78
C8
E0
70
38
98
F0
00
60
60
20
40
ENDCHAR
STARTCHAR Tcommaaccent
ENCODING 538
SWIDTH 667 0
DWIDTH 9 0
BBX 8 15 0 -5
BITMAP
FF
DB
99
18
18
18
18
18
18
3C
00
18
18
08
10
ENDCHAR
STARTCHAR tcommaaccent
ENCODING 539
SWIDTH 333 0
DWIDTH 5 0
BBX 5 14 0 -5
BITMAP
20
60
F0
60
60
60
68
70
30
00
30
30
10
20
ENDCHAR
STARTCHAR uni021E
ENCODING 542
SWIDTH 778 0
DWIDTH 11 0
BBX 10 14 0 0
BITMAP
1100
0E00
0400
0000
F3C0
6180
6180
6180
7F80
6180
6180
6180
6180
F3C0
ENDCHAR
STARTCHAR uni021F
ENCODING 543
SWIDTH 556 0
DWIDTH 8 0
BBX 8 14 0 0
BITMAP
88
70
20
00
E0
60
60
6C
76
66
66
66
66
E7
ENDCHAR
STARTCHAR uni0226
ENCODING 550
SWIDTH 722 0
DWIDTH 10 0
BBX 10 13 0 0
BITMAP
0400
0400
0000
0C00
0C00
1E00
1600
3300
2300
3F00
6180
4180
E3C0
ENDCHAR
STARTCHAR uni0227
ENCODING 551
SWIDTH 500 0
DWIDTH 7 0
BBX 7 10 0 0
BITMAP
10
10
00
78
CC
0C
7C
CC
CC
76
ENDCHAR
STARTCHAR uni0228
ENCODING 552
SWIDTH 667 0
DWIDTH 9 0
BBX 8 13 0 -3
BITMAP
FF
63
61
64
7C
64
60
61
63
FF
08
04
1C
ENDCHAR
STARTCHAR uni0229
ENCODING 553
SWIDTH 444 0
DWIDTH 6 0
BBX 6 10 0 -3
BITMAP
38
4C
CC
FC
C0
E4
78
20
10
70
ENDCHAR
STARTCHAR uni022A
ENCODING 554
SWIDTH 778 0
DWIDTH 11 0
BBX 9 15 1 0
BITMAP
1E00
0000
2200
2200
0000
3E00
6300
C180
C180
C180
C180
C180
C180
6300
3E00
ENDCHAR
STARTCHAR uni022B
ENCODING 555
SWIDTH 500 0
DWIDTH 7 0
BBX 6 12 0 0
BITMAP
78
00
50
50
00
78
CC
CC
CC
CC
CC
78
ENDCHAR
STARTCHAR uni022C
ENCODING 556
SWIDTH 778 0
DWIDTH 11 0
BBX 9 15 1 0
BITMAP
1E00
0000
1A00
2C00
0000
3E00
6300
C180
C180
C180
C180
C180
C180
6300
3E00
ENDCHAR
STARTCHAR uni022D
ENCODING 557
SWIDTH 500 0
DWIDTH 7 0
BBX 6 12 0 0
BITMAP
78
00
68
B0
00
78
CC
CC
CC
CC
CC
78
ENDCHAR
STARTCHAR uni022E
ENCODING 558
SWIDTH 778 0
DWIDTH 11 0
BBX 9 13 1 0
BITMAP
0800
0800
0000
3E00
6300
C180
C180
C180
C180
C180
C180
6300
3E00
ENDCHAR
STARTCHAR uni022F
ENCODING 559
SWIDTH 500 0
DWIDTH 7 0
BBX 6 10 0 0
BITMAP
10
10
00
78
CC
CC
CC
CC
CC
78
ENDCHAR
STARTCHAR uni0230
ENCODING 560
SWIDTH 778 0
DWIDTH 11 0
BBX 9 15 1 0
BITMAP
1E00
0000
0800
0800
0000
3E00
6300
C180
C180
C180
C180
C180
C180
6300
3E00
ENDCHAR
STARTCHAR uni0231
ENCODING 561
SWIDTH 500 0
DWIDTH 7 0
BBX 6 12 0 0
BITMAP
78
00
10
10
00
78
CC
CC
CC
CC
CC
78
ENDCHAR
STARTCHAR uni0232
ENCODING 562
SWIDTH 722 0
DWIDTH 10 0
BBX 10 12 0 0
BITMAP
1E00
0000
F9C0
7080
3100
3900
1A00
1E00
0C00
0C00
0C00
1E00
ENDCHAR
STARTCHAR uni0233
ENCODING 563
SWIDTH 500 0
DWIDTH 7 0
BBX 8 12 -1 -3
BITMAP
3C
00
F7
62
32
34
1C
1C
08
08
38
30
ENDCHAR
STARTCHAR uni0250
ENCODING 592
SWIDTH 500 0
DWIDTH 7 0
BBX 7 7 0 0
BITMAP
DC
66
66
7C
60
66
3C
ENDCHAR
STARTCHAR uni0254
ENCODING 596
SWIDTH 444 0
DWIDTH 6 0
BBX 5 7 0 0
BITMAP
60
D0
98
18
18
B8
70
ENDCHAR
STARTCHAR uni0258
ENCODING 600
SWIDTH 444 0
DWIDTH 6 0
BBX 6 7 0 0
BITMAP
70
C8
CC
FC
0C
9C
78
ENDCHAR
STARTCHAR uni0259
ENCODING 601
SWIDTH 444 0
DWIDTH 6 0
BBX 6 7 0 0
BITMAP
78
9C
0C
FC
CC
C8
70
ENDCHAR
STARTCHAR uni025F
ENCODING 607
SWIDTH 333 0
DWIDTH 5 0
BBX 5 10 0 -3
BITMAP
78
30
30
30
30
30
78
30
B0
E0
ENDCHAR
STARTCHAR uni0265
ENCODING 613
SWIDTH 556 0
DWIDTH 8 0
BBX 8 10 0 -3
BITMAP
E7
66
66
66
66
6E
36
06
06
07
ENDCHAR
STARTCHAR uni0275
ENCODING 629
SWIDTH 500 0
DWIDTH 7 0
BBX 6 7 0 0
BITMAP
78
CC
CC
FC
CC
CC
78
ENDCHAR
STARTCHAR uni0279
ENCODING 633
SWIDTH 444 0
DWIDTH 6 0
BBX 6 7 0 0
BITMAP
3C
18
18
18
18
D8
EC
ENDCHAR
STARTCHAR uni0287
ENCODING 647
SWIDTH 333 0
DWIDTH 5 0
BBX 5 9 0 0
BITMAP
60
70
B0
30
30
30
78
30
20
ENDCHAR
STARTCHAR uni0288
ENCODING 648
SWIDTH 333 0
DWIDTH 5 0
BBX 7 12 0 -3
BITMAP
20
60
F0
60
60
60
78
18
18
18
1A
0E
ENDCHAR
STARTCHAR uni0289
ENCODING 649
SWIDTH 556 0
DWIDTH 7 0
BBX 8 7 -1 0
BITMAP
EE
66
66
FF
66
66
3B
ENDCHAR
STARTCHAR uni028C
ENCODING 652
SWIDTH 500 0
DWIDTH 7 0
BBX 8 7 -1 0
BITMAP
18
18
2C
2C
46
46
EF
ENDCHAR
STARTCHAR uni028D
ENCODING 653
SWIDTH 722 0
DWIDTH 10 0
BBX 10 7 0 0
BITMAP
1200
3700
3700
3B00
5B80
4980
DDC0
ENDCHAR
STARTCHAR uni028E
ENCODING 654
SWIDTH 500 0
DWIDTH 7 0
BBX 8 10 -1 0
BITMAP
0C
1C
10
10
38
38
2C
4C
46
EF
ENDCHAR
STARTCHAR uni029E
ENCODING 670
SWIDTH 556 0
DWIDTH 8 0
BBX 8 10 0 -3
BITMAP
E7
66
36
1E
16
26
76
06
06
07
ENDCHAR
STARTCHAR uni02BB
ENCODING 699
SWIDTH 333 0
DWIDTH 4 0
BBX 2 4 1 6
BITMAP
40
80
C0
C0
ENDCHAR
STARTCHAR afii57929
ENCODING 700
SWIDTH 333 0
DWIDTH 4 0
BBX 2 4 1 6
BITMAP
C0
C0
40
80
ENDCHAR
STARTCHAR afii64937
ENCODING 701
SWIDTH 333 0
DWIDTH 4 0
BBX 2 4 1 6
BITMAP
C0
C0
80
40
ENDCHAR
STARTCHAR circumflex
ENCODING 710
SWIDTH 333 0
DWIDTH 5 0
BBX 5 3 0 8
BITMAP
20
70
88
ENDCHAR
STARTCHAR caron
ENCODING 711
SWIDTH 333 0
DWIDTH 5 0
BBX 5 3 0 8
BITMAP
88
70
20
ENDCHAR
STARTCHAR uni02C8
ENCODING 712
SWIDTH 278 0
DWIDTH 4 0
BBX 2 4 1 6
BITMAP
C0
C0
C0
40
ENDCHAR
STARTCHAR macron
ENCODING 713
SWIDTH 333 0
DWIDTH 5 0
BBX 4 1 0 8
BITMAP
F0
ENDCHAR
STARTCHAR uni02CA
ENCODING 714
SWIDTH 333 0
DWIDTH 5 0
BBX 3 3 1 8
BITMAP
20
60
80
ENDCHAR
STARTCHAR uni02CB
ENCODING 715
SWIDTH 333 0
DWIDTH 5 0
BBX 3 3 1 8
BITMAP
80
C0
20
ENDCHAR
STARTCHAR uni02CD
ENCODING 717
SWIDTH 333 0
DWIDTH 5 0
BBX 4 1 0 -2
BITMAP
F0
ENDCHAR
STARTCHAR uni02CE
ENCODING 718
SWIDTH 333 0
DWIDTH 5 0
BBX 3 3 1 -4
BITMAP
80
C0
20
ENDCHAR
STARTCHAR uni02CF
ENCODING 719
SWIDTH 333 0
DWIDTH 5 0
BBX 3 3 1 -4
BITMAP
20
60
80
ENDCHAR
STARTCHAR breve
ENCODING 728
SWIDTH 333 0
DWIDTH 5 0
BBX 5 2 0 8
BITMAP
88
70
ENDCHAR
STARTCHAR dotaccent
ENCODING 729
SWIDTH 333 0
DWIDTH 5 0
BBX 1 2 2 8
BITMAP
80
80
ENDCHAR
STARTCHAR ring
ENCODING 730
SWIDTH 333 0
DWIDTH 5 0
BBX 4 3 0 8
BITMAP
60
90
60
ENDCHAR
STARTCHAR ogonek
ENCODING 731
SWIDTH 333 0
DWIDTH 5 0
BBX 3 3 1 -3
BITMAP
80
A0
60
ENDCHAR
STARTCHAR tilde
ENCODING 732
SWIDTH 333 0
DWIDTH 5 0
BBX 5 2 0 8
BITMAP
68
B0
ENDCHAR
STARTCHAR hungarumlaut
ENCODING 733
SWIDTH 333 0
DWIDTH 5 0
BBX 6 3 -1 8
BITMAP
24
6C
90
ENDCHAR
STARTCHAR uni02EE
ENCODING 750
SWIDTH 500 0
DWIDTH 7 0
BBX 5 4 1 6
BITMAP
D8
D8
48
90
ENDCHAR
STARTCHAR uni037E
ENCODING 894
SWIDTH 333 0
DWIDTH 4 0
BBX 2 9 1 -2
BITMAP
C0
C0
00
00
00
C0
C0
40
80
ENDCHAR
STARTCHAR tonos
ENCODING 900
SWIDTH 333 0
DWIDTH 5 0
BBX 3 3 1 8
BITMAP
20
60
80
ENDCHAR
STARTCHAR dieresistonos
ENCODING 901
SWIDTH 333 0
DWIDTH 5 0
BBX 4 6 1 8
BITMAP
10
30
40
00
A0
A0
ENDCHAR
STARTCHAR anoteleia
ENCODING 903
SWIDTH 250 0
DWIDTH 4 0
BBX 2 2 0 4
BITMAP
C0
C0
ENDCHAR
STARTCHAR mu
ENCODING 956
SWIDTH 556 0
DWIDTH 7 0
BBX 8 10 -1 -3
BITMAP
EE
66
66
66
66
66
7B
40
60
60
ENDCHAR
STARTCHAR uni1E00
ENCODING 7680
SWIDTH 722 0
DWIDTH 10 0
BBX 10 14 0 -4
BITMAP
0C00
0C00
1E00
1600
3300
2300
3F00
6180
4180
E3C0
0000
0C00
1200
0C00
ENDCHAR
STARTCHAR uni1E01
ENCODING 7681
SWIDTH 500 0
DWIDTH 7 0
BBX 7 11 0 -4
BITMAP
78
CC
0C
7C
CC
CC
76
00
18
24
18
ENDCHAR
STARTCHAR uni1E02
ENCODING 7682
SWIDTH 667 0
DWIDTH 9 0
BBX 8 13 0 0
BITMAP
08
08
00
FE
63
63
63
7E
63
63
63
63
FE
ENDCHAR
STARTCHAR uni1E03
ENCODING 7683
SWIDTH 556 0
DWIDTH 8 0
BBX 7 13 0 0
BITMAP
20
20
00
E0
60
60
7C
66
66
66
66
66
5C
ENDCHAR
STARTCHAR uni1E04
ENCODING 7684
SWIDTH 667 0
DWIDTH 9 0
BBX 8 13 0 -3
BITMAP
FE
63
63
63
7E
63
63
63
63
FE
00
08
08
ENDCHAR
STARTCHAR uni1E05
ENCODING 7685
SWIDTH 556 0
DWIDTH 8 0
BBX 7 13 0 -3
BITMAP
E0
60
60
7C
66
66
66
66
66
5C
00
10
10
ENDCHAR
STARTCHAR uni1E06
ENCODING 7686
SWIDTH 667 0
DWIDTH 9 0
BBX 8 12 0 -2
BITMAP
FE
63
63
63
7E
63
63
63
63
FE
00
3C
ENDCHAR
STARTCHAR uni1E07
ENCODING 7687
SWIDTH 556 0
DWIDTH 8 0
BBX 7 12 0 -2
BITMAP
E0
60
60
7C
66
66
66
66
66
5C
00
3C
ENDCHAR
STARTCHAR uni1E08
ENCODING 7688
SWIDTH 722 0
DWIDTH 10 0
BBX 8 17 1 -3
BITMAP
04
0C
10
00
3D
63
C1
C1
C0
C0
C0
C1
63
3E
10
08
38
ENDCHAR
STARTCHAR uni1E09
ENCODING 7689
SWIDTH 444 0
DWIDTH 7 0
BBX 6 14 0 -3
BITMAP
08
18
20
00
38
4C
CC
C0
C0
E4
78
20
10
70
ENDCHAR
STARTCHAR uni1E0A
ENCODING 7690
SWIDTH 722 0
DWIDTH 10 0
BBX 9 13 0 0
BITMAP
0800
0800
0000
FE00
6300
6180
6180
6180
6180
6180
6180
6300
FE00
ENDCHAR
STARTCHAR uni1E0B
ENCODING 7691
SWIDTH 556 0
DWIDTH 7 0
BBX 7 13 0 0
BITMAP
08
08
00
1C
0C
0C
7C
CC
CC
CC
CC
CC
76
ENDCHAR
STARTCHAR uni1E0C
ENCODING 7692
SWIDTH 722 0
DWIDTH 10 0
BBX 9 13 0 -3
BITMAP
FE00
6300
6180
6180
6180
6180
6180
6180
6300
FE00
0000
0800
0800
ENDCHAR
STARTCHAR uni1E0D
ENCODING 7693
SWIDTH 556 0
DWIDTH 7 0
BBX 7 13 0 -3
BITMAP
1C
0C
0C
7C
CC
CC
CC
CC
CC
76
00
10
10
ENDCHAR
STARTCHAR uni1E0E
ENCODING 7694
SWIDTH 722 0
DWIDTH 10 0
BBX 9 12 0 -2
BITMAP
FE00
6300
6180
6180
6180
6180
6180
6180
6300
FE00
0000
3C00
ENDCHAR
STARTCHAR uni1E0F
ENCODING 7695
SWIDTH 556 0
DWIDTH 7 0
BBX 7 12 0 -2
BITMAP
1C
0C
0C
7C
CC
CC
CC
CC
CC
76
00
78
ENDCHAR
STARTCHAR uni1E10
ENCODING 7696
SWIDTH 722 0
DWIDTH 10 0
BBX 9 13 0 -3
BITMAP
FE00
6300
6180
6180
6180
6180
6180
6180
6300
FE00
0800
0400
1C00
ENDCHAR
STARTCHAR uni1E11
ENCODING 7697
SWIDTH 556 0
DWIDTH 7 0
BBX 7 13 0 -3
BITMAP
1C
0C
0C
7C
CC
CC
CC
CC
CC
76
10
08
38
ENDCHAR
STARTCHAR uni1E12
ENCODING 7698
SWIDTH 722 0
DWIDTH 10 0
BBX 9 14 0 -4
BITMAP
FE00
6300
6180
6180
6180
6180
6180
6180
6300
FE00
0000
0800
1C00
2200
ENDCHAR
STARTCHAR uni1E13
ENCODING 7699
SWIDTH 556 0
DWIDTH 7 0
BBX 7 14 0 -4
BITMAP
1C
0C
0C
7C
CC
CC
CC
CC
CC
76
00
10
38
44
ENDCHAR
STARTCHAR uni1E14
ENCODING 7700
SWIDTH 667 0
DWIDTH 9 0
BBX 8 16 0 0
BITMAP
20
30
08
00
3C
00
FF
63
61
64
7C
64
60
61
63
FF
ENDCHAR
STARTCHAR uni1E15
ENCODING 7701
SWIDTH 444 0
DWIDTH 6 0
BBX 6 13 0 0
BITMAP
40
60
10
00
78
00
38
4C
CC
FC
C0
E4
78
ENDCHAR
STARTCHAR uni1E16
ENCODING 7702
SWIDTH 667 0
DWIDTH 9 0
BBX 8 16 0 0
BITMAP
04
0C
10
00
3C
00
FF
63
61
64
7C
64
60
61
63
FF
ENDCHAR
STARTCHAR uni1E17
ENCODING 7703
SWIDTH 444 0
DWIDTH 6 0
BBX 6 13 0 0
BITMAP
08
18
20
00
78
00
38
4C
CC
FC
C0
E4
78
ENDCHAR
STARTCHAR uni1E18
ENCODING 7704
SWIDTH 667 0
DWIDTH 9 0
BBX 8 14 0 -4
BITMAP
FF
63
61
64
7C
64
60
61
63
FF
00
08
1C
22
ENDCHAR
STARTCHAR uni1E19
ENCODING 7705
SWIDTH 444 0
DWIDTH 6 0
BBX 6 11 0 -4
BITMAP
38
4C
CC
FC
C0
E4
78
00
20
70
88
ENDCHAR
STARTCHAR uni1E1A
ENCODING 7706
SWIDTH 667 0
DWIDTH 9 0
BBX 8 13 0 -3
BITMAP
FF
63
61
64
7C
64
60
61
63
FF
00
34
58
ENDCHAR
STARTCHAR uni1E1B
ENCODING 7707
SWIDTH 444 0
DWIDTH 6 0
BBX 6 10 0 -3
BITMAP
38
4C
CC
FC
C0
E4
78
00
68
B0
ENDCHAR
STARTCHAR uni1E1C
ENCODING 7708
SWIDTH 667 0
DWIDTH 9 0
BBX 8 16 0 -3
BITMAP
44
38
00
FF
63
61
64
7C
64
60
61
63
FF
08
04
1C
ENDCHAR
STARTCHAR uni1E1D
ENCODING 7709
SWIDTH 444 0
DWIDTH 6 0
BBX 6 13 0 -3
BITMAP
44
38
00
38
4C
CC
FC
C0
E4
78
20
10
70
ENDCHAR
STARTCHAR uni1E1E
ENCODING 7710
SWIDTH 611 0
DWIDTH 8 0
BBX 8 13 0 0
BITMAP
08
08
00
FF
63
61
64
7C
64
64
60
60
F0
ENDCHAR
STARTCHAR uni1E1F
ENCODING 7711
SWIDTH 333 0
DWIDTH 5 0
BBX 5 13 0 0
BITMAP
20
20
00
38
68
60
F0
60
60
60
60
60
F0
ENDCHAR
STARTCHAR uni1E20
ENCODING 7712
SWIDTH 778 0
DWIDTH 11 0
BBX 9 12 1 0
BITMAP
3C00
0000
3D00
6300
C100
C100
C000
C780
C300
C300
6300
3E00
ENDCHAR
STARTCHAR uni1E21
ENCODING 7713
SWIDTH 500 0
DWIDTH 7 0
BBX 7 12 0 -3
BITMAP
78
00
7E
CC
CC
CC
78
40
7C
FE
82
7C
ENDCHAR
STARTCHAR uni1E22
ENCODING 7714
SWIDTH 778 0
DWIDTH 11 0
BBX 10 13 0 0
BITMAP
0400
0400
0000
F3C0
6180
6180
6180
7F80
6180
6180
6180
6180
F3C0
ENDCHAR
STARTCHAR uni1E23
ENCODING 7715
SWIDTH 556 0
DWIDTH 8 0
BBX 8 13 0 0
BITMAP
20
20
00
E0
60
60
6C
76
66
66
66
66
E7
ENDCHAR
STARTCHAR uni1E24
ENCODING 7716
SWIDTH 778 0
DWIDTH 11 0
BBX 10 13 0 -3
BITMAP
F3C0
6180
6180
6180
7F80
6180
6180
6180
6180
F3C0
0000
0400
0400
ENDCHAR
STARTCHAR uni1E25
ENCODING 7717
SWIDTH 556 0
DWIDTH 8 0
BBX 8 13 0 -3
BITMAP
E0
60
60
6C
76
66
66
66
66
E7
00
08
08
ENDCHAR
STARTCHAR uni1E26
ENCODING 7718
SWIDTH 778 0
DWIDTH 11 0
BBX 10 13 0 0
BITMAP
0A00
0A00
0000
F3C0
6180
6180
6180
7F80
6180
6180
6180
6180
F3C0
ENDCHAR
STARTCHAR uni1E27
ENCODING 7719
SWIDTH 556 0
DWIDTH 8 0
BBX 8 13 0 0
BITMAP
50
50
00
E0
60
60
6C
76
66
66
66
66
E7
ENDCHAR
STARTCHAR uni1E28
ENCODING 7720
SWIDTH 778 0
DWIDTH 11 0
BBX 10 13 0 -3
BITMAP
F3C0
6180
6180
6180
7F80
6180
6180
6180
6180
F3C0
0400
0200
0E00
ENDCHAR
STARTCHAR uni1E29
ENCODING 7721
SWIDTH 556 0
DWIDTH 8 0
BBX 8 13 0 -3
BITMAP
E0
60
60
6C
76
66
66
66
66
E7
08
04
1C
ENDCHAR
STARTCHAR uni1E2A
ENCODING 7722
SWIDTH 778 0
DWIDTH 11 0
BBX 10 13 0 -3
BITMAP
F3C0
6180
6180
6180
7F80
6180
6180
6180
6180
F3C0
0000
1100
0E00
ENDCHAR
STARTCHAR uni1E2B
ENCODING 7723
SWIDTH 556 0
DWIDTH 8 0
BBX 8 13 0 -3
BITMAP
E0
60
60
6C
76
66
66
66
66
E7
00
22
1C
ENDCHAR
STARTCHAR uni1E2C
ENCODING 7724
SWIDTH 389 0
DWIDTH 5 0
BBX 5 13 -1 -3
BITMAP
78
30
30
30
30
30
30
30
30
78
00
68
B0
ENDCHAR
STARTCHAR uni1E2D
ENCODING 7725
SWIDTH 278 0
DWIDTH 4 0
BBX 5 13 -1 -3
BITMAP
30
30
00
70
30
30
30
30
30
78
00
68
B0
ENDCHAR
STARTCHAR uni1E2E
ENCODING 7726
SWIDTH 389 0
DWIDTH 5 0
BBX 4 17 0 0
BITMAP
10
30
40
00
90
90
00
F0
60
60
60
60
60
60
60
60
F0
ENDCHAR
STARTCHAR uni1E2F
ENCODING 7727
SWIDTH 278 0
DWIDTH 4 0
BBX 4 14 0 0
BITMAP
10
30
40
00
A0
A0
00
E0
60
60
60
60
60
F0
ENDCHAR
STARTCHAR uni1E30
ENCODING 7728
SWIDTH 778 0
DWIDTH 11 0
BBX 10 14 1 0
BITMAP
0200
0600
0800
0000
F7C0
6300
6200
6400
7800
7C00
6E00
6700
6380
F7C0
ENDCHAR
STARTCHAR uni1E31
ENCODING 7729
SWIDTH 556 0
DWIDTH 8 0
BBX 8 14 0 0
BITMAP
08
18
20
00
E0
60
60
6E
64
68
78
6C
66
E7
ENDCHAR
STARTCHAR uni1E32
ENCODING 7730
SWIDTH 778 0
DWIDTH 11 0
BBX 10 13 1 -3
BITMAP
F7C0
6300
6200
6400
7800
7C00
6E00
6700
6380
F7C0
0000
0400
0400
ENDCHAR
STARTCHAR uni1E33
ENCODING 7731
SWIDTH 556 0
DWIDTH 8 0
BBX 8 13 0 -3
BITMAP
E0
60
60
6E
64
68
78
6C
66
E7
00
10
10
ENDCHAR
STARTCHAR uni1E34
ENCODING 7732
SWIDTH 778 0
DWIDTH 11 0
BBX 10 12 1 -2
BITMAP
F7C0
6300
6200
6400
7800
7C00
6E00
6700
6380
F7C0
0000
1E00
ENDCHAR
STARTCHAR uni1E35
ENCODING 7733
SWIDTH 556 0
DWIDTH 8 0
BBX 8 12 0 -2
BITMAP
E0
60
60
6E
64
68
78
6C
66
E7
00
3C
ENDCHAR
STARTCHAR uni1E36
ENCODING 7734
SWIDTH 667 0
DWIDTH 9 0
BBX 8 13 0 -3
BITMAP
F0
60
60
60
60
60
61
61
63
FF
00
08
08
ENDCHAR
STARTCHAR uni1E37
ENCODING 7735
SWIDTH 278 0
DWIDTH 4 0
BBX 4 13 0 -3
BITMAP
E0
60
60
60
60
60
60
60
60
F0
00
20
20
ENDCHAR
STARTCHAR uni1E38
ENCODING 7736
SWIDTH 667 0
DWIDTH 9 0
BBX 8 15 0 -3
BITMAP
78
00
F0
60
60
60
60
60
61
61
63
FF
00
08
08
ENDCHAR
STARTCHAR uni1E39
ENCODING 7737
SWIDTH 278 0
DWIDTH 4 0
BBX 4 15 0 -3
BITMAP
F0
00
E0
60
60
60
60
60
60
60
60
F0
00
20
20
ENDCHAR
STARTCHAR uni1E3A
ENCODING 7738
SWIDTH 667 0
DWIDTH 9 0
BBX 8 12 0 -2
BITMAP
F0
60
60
60
60
60
61
61
63
FF
00
3C
ENDCHAR
STARTCHAR uni1E3B
ENCODING 7739
SWIDTH 278 0
DWIDTH 4 0
BBX 4 12 0 -2
BITMAP
E0
60
60
60
60
60
60
60
60
F0
00
F0
ENDCHAR
STARTCHAR uni1E3C
ENCODING 7740
SWIDTH 667 0
DWIDTH 9 0
BBX 8 14 0 -4
BITMAP
F0
60
60
60
60
60
61
61
63
FF
00
08
1C
22
ENDCHAR
STARTCHAR uni1E3D
ENCODING 7741
SWIDTH 278 0
DWIDTH 4 0
BBX 5 14 0 -4
BITMAP
E0
60
60
60
60
60
60
60
60
F0
00
20
70
88
ENDCHAR
STARTCHAR uni1E3E
ENCODING 7742
SWIDTH 944 0
DWIDTH 13 0
BBX 12 14 0 0
BITMAP
0100
0300
0400
0000
F0F0
70E0
70E0
5960
5960
5A60
4E60
4E60
4460
E4F0
ENDCHAR
STARTCHAR uni1E3F
ENCODING 7743
SWIDTH 833 0
DWIDTH 12 0
BBX 12 11 0 0
BITMAP
0100
0300
0400
0000
ECC0
7760
6660
6660
6660
6660
F770
ENDCHAR
STARTCHAR uni1E40
ENCODING 7744
SWIDTH 944 0
DWIDTH 13 0
BBX 12 13 0 0
BITMAP
0200
0200
0000
F0F0
70E0
70E0
5960
5960
5A60
4E60
4E60
4460
E4F0
ENDCHAR
STARTCHAR uni1E41
ENCODING 7745
SWIDTH 833 0
DWIDTH 12 0
BBX 12 10 0 0
BITMAP
0400
0400
0000
ECC0
7760
6660
6660
6660
6660
F770
ENDCHAR
STARTCHAR uni1E42
ENCODING 7746
SWIDTH 944 0
DWIDTH 13 0
BBX 12 13 0 -3
BITMAP
F0F0
70E0
70E0
5960
5960
5A60
4E60
4E60
4460
E4F0
0000
0200
0200
ENDCHAR
STARTCHAR uni1E43
ENCODING 7747
SWIDTH 833 0
DWIDTH 12 0
BBX 12 10 0 -3
BITMAP
ECC0
7760
6660
6660
6660
6660
F770
0000
0400
0400
ENDCHAR
STARTCHAR uni1E44
ENCODING 7748
SWIDTH 722 0
DWIDTH 10 0
BBX 10 13 0 0
BITMAP
0800
0800
0000
E1C0
7080
7080
5880
4C80
4C80
4680
4380
4380
E180
ENDCHAR
STARTCHAR uni1E45
ENCODING 7749
SWIDTH 556 0
DWIDTH 8 0
BBX 8 10 0 0
BITMAP
10
10
00
EC
76
66
66
66
66
E7
ENDCHAR
STARTCHAR uni1E46
ENCODING 7750
SWIDTH 722 0
DWIDTH 10 0
BBX 10 13 0 -3
BITMAP
E1C0
7080
7080
5880
4C80
4C80
4680
4380
4380
E180
0000
0400
0400
ENDCHAR
STARTCHAR uni1E47
ENCODING 7751
SWIDTH 556 0
DWIDTH 8 0
BBX 8 10 0 -3
BITMAP
EC
76
66
66
66
66
E7
00
08
08
ENDCHAR
STARTCHAR uni1E48
ENCODING 7752
SWIDTH 722 0
DWIDTH 10 0
BBX 10 12 0 -2
BITMAP
E1C0
7080
7080
5880
4C80
4C80
4680
4380
4380
E180
0000
1E00
ENDCHAR
STARTCHAR uni1E49
ENCODING 7753
SWIDTH 556 0
DWIDTH 8 0
BBX 8 9 0 -2
BITMAP
EC
76
66
66
66
66
E7
00
3C
ENDCHAR
STARTCHAR uni1E4A
ENCODING 7754
SWIDTH 722 0
DWIDTH 10 0
BBX 10 14 0 -4
BITMAP
E1C0
7080
7080
5880
4C80
4C80
4680
4380
4380
E180
0000
0400
0E00
1100
ENDCHAR
STARTCHAR uni1E4B
ENCODING 7755
SWIDTH 556 0
DWIDTH 8 0
BBX 8 11 0 -4
BITMAP
EC
76
66
66
66
66
E7
00
08
1C
22
ENDCHAR
STARTCHAR uni1E4C
ENCODING 7756
SWIDTH 778 0
DWIDTH 11 0
BBX 9 17 1 0
BITMAP
0200
0600
0800
0000
1A00
2C00
0000
3E00
6300
C180
C180
C180
C180
C180
C180
6300
3E00
ENDCHAR
STARTCHAR uni1E4D
ENCODING 7757
SWIDTH 500 0
DWIDTH 7 0
BBX 6 14 0 0
BITMAP
08
18
20
00
68
B0
00
78
CC
CC
CC
CC
CC
78
ENDCHAR
STARTCHAR uni1E4E
ENCODING 7758
SWIDTH 778 0
DWIDTH 11 0
BBX 9 16 1 0
BITMAP
1400
1400
0000
1A00
2C00
0000
3E00
6300
C180
C180
C180
C180
C180
C180
6300
3E00
ENDCHAR
STARTCHAR uni1E4F
ENCODING 7759
SWIDTH 500 0
DWIDTH 7 0
BBX 6 13 0 0
BITMAP
50
50
00
68
B0
00
78
CC
CC
CC
CC
CC
78
ENDCHAR
STARTCHAR uni1E50
ENCODING 7760
SWIDTH 778 0
DWIDTH 11 0
BBX 9 16 1 0
BITMAP
2000
3000
0800
0000
1E00
0000
3E00
6300
C180
C180
C180
C180
C180
C180
6300
3E00
ENDCHAR
STARTCHAR uni1E51
ENCODING 7761
SWIDTH 500 0
DWIDTH 7 0
BBX 6 13 0 0
BITMAP
40
60
10
00
78
00
78
CC
CC
CC
CC
CC
78
ENDCHAR
STARTCHAR uni1E52
ENCODING 7762
SWIDTH 778 0
DWIDTH 11 0
BBX 9 16 1 0
BITMAP
0200
0600
0800
0000
1E00
0000
3E00
6300
C180
C180
C180
C180
C180
C180
6300
3E00
ENDCHAR
STARTCHAR uni1E53
ENCODING 7763
SWIDTH 500 0
DWIDTH 7 0
BBX 6 13 0 0
BITMAP
08
18
20
00
78
00
78
CC
CC
CC
CC
CC
78
ENDCHAR
STARTCHAR uni1E54
ENCODING 7764
SWIDTH 611 0
DWIDTH 9 0
BBX 8 14 0 0
BITMAP
04
0C
10
00
FE
67
63
63
63
7E
60
60
60
F0
ENDCHAR
STARTCHAR uni1E55
ENCODING 7765
SWIDTH 556 0
DWIDTH 8 0
BBX 7 14 0 -3
BITMAP
04
0C
10
00
EC
76
66
66
66
66
7C
60
60
F0
ENDCHAR
STARTCHAR uni1E56
ENCODING 7766
SWIDTH 611 0
DWIDTH 9 0
BBX 8 13 0 0
BITMAP
08
08
00
FE
67
63
63
63
7E
60
60
60
F0
ENDCHAR
STARTCHAR uni1E57
ENCODING 7767
SWIDTH 556 0
DWIDTH 8 0
BBX 7 13 0 -3
BITMAP
10
10
00
EC
76
66
66
66
66
7C
60
60
F0
ENDCHAR
STARTCHAR uni1E58
ENCODING 7768
SWIDTH 722 0
DWIDTH 10 0
BBX 10 13 0 0
BITMAP
0800
0800
0000
FE00
6700
6300
6300
6600
7C00
6E00
6700
6380
F1C0
ENDCHAR
STARTCHAR uni1E59
ENCODING 7769
SWIDTH 444 0
DWIDTH 6 0
BBX 6 10 0 0
BITMAP
10
10
00
DC
6C
60
60
60
60
F0
ENDCHAR
STARTCHAR uni1E5A
ENCODING 7770
SWIDTH 722 0
DWIDTH 10 0
BBX 10 13 0 -3
BITMAP
FE00
6700
6300
6300
6600
7C00
6E00
6700
6380
F1C0
0000
0800
0800
ENDCHAR
STARTCHAR uni1E5B
ENCODING 7771
SWIDTH 444 0
DWIDTH 6 0
BBX 6 10 0 -3
BITMAP
DC
6C
60
60
60
60
F0
00
20
20
ENDCHAR
STARTCHAR uni1E5C
ENCODING 7772
SWIDTH 722 0
DWIDTH 10 0
BBX 10 15 0 -3
BITMAP
3C00
0000
FE00
6700
6300
6300
6600
7C00
6E00
6700
6380
F1C0
0000
0800
0800
ENDCHAR
STARTCHAR uni1E5D
ENCODING 7773
SWIDTH 444 0
DWIDTH 6 0
BBX 6 12 0 -3
BITMAP
78
00
DC
6C
60
60
60
60
F0
00
20
20
ENDCHAR
STARTCHAR uni1E5E
ENCODING 7774
SWIDTH 722 0
DWIDTH 10 0
BBX 10 12 0 -2
BITMAP
FE00
6700
6300
6300
6600
7C00
6E00
6700
6380
F1C0
0000
1E00
ENDCHAR
STARTCHAR uni1E5F
ENCODING 7775
SWIDTH 444 0
DWIDTH 6 0
BBX 6 9 0 -2
BITMAP
DC
6C
60
60
60
60
F0
00
F0
ENDCHAR
STARTCHAR uni1E60
ENCODING 7776
SWIDTH 556 0
DWIDTH 8 0
BBX 7 13 0 0
BITMAP
10
10
00
7A
C6
C2
E0
78
1C
0E
86
C6
FC
ENDCHAR
STARTCHAR uni1E61
ENCODING 7777
SWIDTH 389 0
DWIDTH 6 0
BBX 5 10 0 0
BITMAP
20
20
00
78
C8
E0
70
38
98
F0
ENDCHAR
STARTCHAR uni1E62
ENCODING 7778
SWIDTH 556 0
DWIDTH 8 0
BBX 7 13 0 -3
BITMAP
7A
C6
C2
E0
78
1C
0E
86
C6
FC
00
10
10
ENDCHAR
STARTCHAR uni1E63
ENCODING 7779
SWIDTH 389 0
DWIDTH 6 0
BBX 5 10 0 -3
BITMAP
78
C8
E0
70
38
98
F0
00
20
20
ENDCHAR
STARTCHAR uni1E64
ENCODING 7780
SWIDTH 556 0
DWIDTH 8 0
BBX 7 17 0 0
BITMAP
08
08
00
04
0C
10
00
7A
C6
C2
E0
78
1C
0E
86
C6
FC
ENDCHAR
STARTCHAR uni1E65
ENCODING 7781
SWIDTH 389 0
DWIDTH 6 0
BBX 5 14 0 0
BITMAP
10
10
00
08
18
20
00
78
C8
E0
70
38
98
F0
ENDCHAR
STARTCHAR uni1E66
ENCODING 7782
SWIDTH 556 0
DWIDTH 8 0
BBX 7 17 0 0
BITMAP
10
10
00
44
38
10
00
7A
C6
C2
E0
78
1C
0E
86
C6
FC
ENDCHAR
STARTCHAR uni1E67
ENCODING 7783
SWIDTH 389 0
DWIDTH 6 0
BBX 5 14 0 0
BITMAP
20
20
00
88
70
20
00
78
C8
E0
70
38
98
F0
ENDCHAR
STARTCHAR uni1E68
ENCODING 7784
SWIDTH 556 0
DWIDTH 8 0
BBX 7 16 0 -3
BITMAP
10
10
00
7A
C6
C2
E0
78
1C
0E
86
C6
FC
00
10
10
ENDCHAR
STARTCHAR uni1E69
ENCODING 7785
SWIDTH 389 0
DWIDTH 6 0
BBX 5 13 0 -3
BITMAP
20
20
00
78
C8
E0
70
38
98
F0
00
20
20
ENDCHAR
STARTCHAR uni1E6A
ENCODING 7786
SWIDTH 667 0
DWIDTH 9 0
BBX 8 13 0 0
BITMAP
08
08
00
FF
DB
99
18
18
18
18
18
18
3C
ENDCHAR
STARTCHAR uni1E6B
ENCODING 7787
SWIDTH 333 0
DWIDTH 5 0
BBX 5 12 0 0
BITMAP
20
20
00
20
60
F0
60
60
60
68
70
30
ENDCHAR
STARTCHAR uni1E6C
ENCODING 7788
SWIDTH 667 0
DWIDTH 9 0
BBX 8 13 0 -3
BITMAP
FF
DB
99
18
18
18
18
18
18
3C
00
08
08
ENDCHAR
STARTCHAR uni1E6D
ENCODING 7789
SWIDTH 333 0
DWIDTH 5 0
BBX 5 12 0 -3
BITMAP
20
60
F0
60
60
60
68
70
30
00
20
20
ENDCHAR
STARTCHAR uni1E6E
ENCODING 7790
SWIDTH 667 0
DWIDTH 9 0
BBX 8 12 0 -2
BITMAP
FF
DB
99
18
18
18
18
18
18
3C
00
3C
ENDCHAR
STARTCHAR uni1E6F
ENCODING 7791
SWIDTH 333 0
DWIDTH 5 0
BBX 5 11 0 -2
BITMAP
20
60
F0
60
60
60
68
70
30
00
78
ENDCHAR
STARTCHAR uni1E70
ENCODING 7792
SWIDTH 667 0
DWIDTH 9 0
BBX 8 14 0 -4
BITMAP
FF
DB
99
18
18
18
18
18
18
3C
00
08
1C
22
ENDCHAR
STARTCHAR uni1E71
ENCODING 7793
SWIDTH 333 0
DWIDTH 5 0
BBX 5 13 0 -4
BITMAP
20
60
F0
60
60
60
68
70
30
00
20
70
88
ENDCHAR
STARTCHAR uni1E72
ENCODING 7794
SWIDTH 722 0
DWIDTH 10 0
BBX 9 13 0 -3
BITMAP
F380
6100
6100
6100
6100
6100
6100
6100
7300
3E00
0000
1400
1400
ENDCHAR
STARTCHAR uni1E73
ENCODING 7795
SWIDTH 556 0
DWIDTH 7 0
BBX 8 10 -1 -3
BITMAP
EE
66
66
66
66
66
3B
00
14
14
ENDCHAR
STARTCHAR uni1E74
ENCODING 7796
SWIDTH 722 0
DWIDTH 10 0
BBX 9 13 0 -3
BITMAP
F380
6100
6100
6100
6100
6100
6100
6100
7300
3E00
0000
1A00
2C00
ENDCHAR
STARTCHAR uni1E75
ENCODING 7797
SWIDTH 556 0
DWIDTH 7 0
BBX 8 10 -1 -3
BITMAP
EE
66
66
66
66
66
3B
00
1A
2C
ENDCHAR
STARTCHAR uni1E76
ENCODING 7798
SWIDTH 722 0
DWIDTH 10 0
BBX 9 14 0 -4
BITMAP
F380
6100
6100
6100
6100
6100
6100
6100
7300
3E00
0000
0800
1C00
2200
ENDCHAR
STARTCHAR uni1E77
ENCODING 7799
SWIDTH 556 0
DWIDTH 7 0
BBX 8 11 -1 -4
BITMAP
EE
66
66
66
66
66
3B
00
08
1C
22
ENDCHAR
STARTCHAR uni1E78
ENCODING 7800
SWIDTH 722 0
DWIDTH 10 0
BBX 9 17 0 0
BITMAP
0200
0600
0800
0000
1A00
2C00
0000
F380
6100
6100
6100
6100
6100
6100
6100
7300
3E00
ENDCHAR
STARTCHAR uni1E79
ENCODING 7801
SWIDTH 556 0
DWIDTH 7 0
BBX 8 14 -1 0
BITMAP
02
06
08
00
1A
2C
00
EE
66
66
66
66
66
3B
ENDCHAR
STARTCHAR uni1E7A
ENCODING 7802
SWIDTH 722 0
DWIDTH 10 0
BBX 9 15 0 0
BITMAP
1400
1400
0000
3C00
0000
F380
6100
6100
6100
6100
6100
6100
6100
7300
3E00
ENDCHAR
STARTCHAR uni1E7B
ENCODING 7803
SWIDTH 556 0
DWIDTH 7 0
BBX 8 12 -1 0
BITMAP
28
28
00
3C
00
EE
66
66
66
66
66
3B
ENDCHAR
STARTCHAR uni1E7C
ENCODING 7804
SWIDTH 722 0
DWIDTH 10 0
BBX 10 13 0 0
BITMAP
0D00
1600
0000
F1C0
6080
6180
3100
3300
3200
1A00
1E00
0C00
0C00
ENDCHAR
STARTCHAR uni1E7D
ENCODING 7805
SWIDTH 500 0
DWIDTH 7 0
BBX 8 10 -1 0
BITMAP
1A
2C
00
F7
62
62
34
34
18
18
ENDCHAR
STARTCHAR uni1E7E
ENCODING 7806
SWIDTH 722 0
DWIDTH 10 0
BBX 10 13 0 -3
BITMAP
F1C0
6080
6180
3100
3300
3200
1A00
1E00
0C00
0C00
0000
0400
0400
ENDCHAR
STARTCHAR uni1E7F
ENCODING 7807
SWIDTH 500 0
DWIDTH 7 0
BBX 8 10 -1 -3
BITMAP
F7
62
62
34
34
18
18
00
08
08
ENDCHAR
STARTCHAR Wgrave
ENCODING 7808
SWIDTH 1000 0
DWIDTH 14 0
BBX 15 14 -1 0
BITMAP
0400
0600
0100
0000
F79E
630C
6308
3188
3190
3390
1AD0
1CE0
0C60
0C60
ENDCHAR
STARTCHAR wgrave
ENCODING 7809
SWIDTH 722 0
DWIDTH 10 0
BBX 10 11 0 0
BITMAP
1000
1800
0400
0000
EEC0
6480
7680
3700
3B00
3B00
1200
ENDCHAR
STARTCHAR Wacute
ENCODING 7810
SWIDTH 1000 0
DWIDTH 14 0
BBX 15 14 -1 0
BITMAP
0080
0180
0200
0000
F79E
630C
6308
3188
3190
3390
1AD0
1CE0
0C60
0C60
ENDCHAR
STARTCHAR wacute
ENCODING 7811
SWIDTH 722 0
DWIDTH 10 0
BBX 10 11 0 0
BITMAP
0200
0600
0800
0000
EEC0
6480
7680
3700
3B00
3B00
1200
ENDCHAR
STARTCHAR Wdieresis
ENCODING 7812
SWIDTH 1000 0
DWIDTH 14 0
BBX 15 13 -1 0
BITMAP
0280
0280
0000
F79E
630C
6308
3188
3190
3390
1AD0
1CE0
0C60
0C60
ENDCHAR
STARTCHAR wdieresis
ENCODING 7813
SWIDTH 722 0
DWIDTH 10 0
BBX 10 10 0 0
BITMAP
1400
1400
0000
EEC0
6480
7680
3700
3B00
3B00
1200
ENDCHAR
STARTCHAR uni1E86
ENCODING 7814
SWIDTH 1000 0
DWIDTH 14 0
BBX 15 13 -1 0
BITMAP
0100
0100
0000
F79E
630C
6308
3188
3190
3390
1AD0
1CE0
0C60
0C60
ENDCHAR
STARTCHAR uni1E87
ENCODING 7815
SWIDTH 722 0
DWIDTH 10 0
BBX 10 10 0 0
BITMAP
0800
0800
0000
EEC0
6480
7680
3700
3B00
3B00
1200
ENDCHAR
STARTCHAR uni1E88
ENCODING 7816
SWIDTH 1000 0
DWIDTH 14 0
BBX 15 13 -1 -3
BITMAP
F79E
630C
6308
3188
3190
3390
1AD0
1CE0
0C60
0C60
0000
0100
0100
ENDCHAR
STARTCHAR uni1E89
ENCODING 7817
SWIDTH 722 0
DWIDTH 10 0
BBX 10 10 0 -3
BITMAP
EEC0
6480
7680
3700
3B00
3B00
1200
0000
0800
0800
ENDCHAR
STARTCHAR uni1E8A
ENCODING 7818
SWIDTH 722 0
DWIDTH 10 0
BBX 11 13 0 0
BITMAP
0800
0800
0000
F1C0
7080
3900
1E00
0C00
0E00
1700
2380
41C0
E3E0
ENDCHAR
STARTCHAR uni1E8B
ENCODING 7819
SWIDTH 500 0
DWIDTH 7 0
BBX 7 10 0 0
BITMAP
10
10
00
EE
6C
38
38
38
6C
EE
ENDCHAR
STARTCHAR uni1E8C
ENCODING 7820
SWIDTH 722 0
DWIDTH 10 0
BBX 11 13 0 0
BITMAP
1400
1400
0000
F1C0
7080
3900
1E00
0C00
0E00
1700
2380
41C0
E3E0
ENDCHAR
STARTCHAR uni1E8D
ENCODING 7821
SWIDTH 500 0
DWIDTH 7 0
BBX 7 10 0 0
BITMAP
28
28
00
EE
6C
38
38
38
6C
EE
ENDCHAR
STARTCHAR uni1E8E
ENCODING 7822
SWIDTH 722 0
DWIDTH 10 0
BBX 10 13 0 0
BITMAP
0800
0800
0000
F9C0
7080
3100
3900
1A00
1E00
0C00
0C00
0C00
1E00
ENDCHAR
STARTCHAR uni1E8F
ENCODING 7823
SWIDTH 500 0
DWIDTH 7 0
BBX 8 13 -1 -3
BITMAP
10
10
00
F7
62
32
34
1C
1C
08
08
38
30
ENDCHAR
STARTCHAR uni1E90
ENCODING 7824
SWIDTH 667 0
DWIDTH 9 0
BBX 8 14 0 0
BITMAP
08
1C
22
00
FF
C7
86
8C
18
18
31
61
E3
FF
ENDCHAR
STARTCHAR uni1E91
ENCODING 7825
SWIDTH 444 0
DWIDTH 6 0
BBX 6 11 0 0
BITMAP
10
38
44
00
FC
9C
18
30
64
E4
FC
ENDCHAR
STARTCHAR uni1E92
ENCODING 7826
SWIDTH 667 0
DWIDTH 9 0
BBX 8 13 0 -3
BITMAP
FF
C7
86
8C
18
18
31
61
E3
FF
00
10
10
ENDCHAR
STARTCHAR uni1E93
ENCODING 7827
SWIDTH 444 0
DWIDTH 6 0
BBX 6 10 0 -3
BITMAP
FC
9C
18
30
64
E4
FC
00
20
20
ENDCHAR
STARTCHAR uni1E94
ENCODING 7828
SWIDTH 667 0
DWIDTH 9 0
BBX 8 12 0 -2
BITMAP
FF
C7
86
8C
18
18
31
61
E3
FF
00
3C
ENDCHAR
STARTCHAR uni1E95
ENCODING 7829
SWIDTH 444 0
DWIDTH 6 0
BBX 6 9 0 -2
BITMAP
FC
9C
18
30
64
E4
FC
00
78
ENDCHAR
STARTCHAR uni1E96
ENCODING 7830
SWIDTH 556 0
DWIDTH 8 0
BBX 8 12 0 -2
BITMAP
E0
60
60
6C
76
66
66
66
66
E7
00
3C
ENDCHAR
STARTCHAR uni1E97
ENCODING 7831
SWIDTH 333 0
DWIDTH 5 0
BBX 5 12 0 0
BITMAP
50
50
00
20
60
F0
60
60
60
68
70
30
ENDCHAR
STARTCHAR uni1E98
ENCODING 7832
SWIDTH 722 0
DWIDTH 10 0
BBX 10 11 0 0
BITMAP
0C00
1200
0C00
0000
EEC0
6480
7680
3700
3B00
3B00
1200
ENDCHAR
STARTCHAR uni1E99
ENCODING 7833
SWIDTH 500 0
DWIDTH 7 0
BBX 8 14 -1 -3
BITMAP
18
24
18
00
F7
62
32
34
1C
1C
08
08
38
30
ENDCHAR
STARTCHAR uni1EA0
ENCODING 7840
SWIDTH 722 0
DWIDTH 10 0
BBX 10 13 0 -3
BITMAP
0C00
0C00
1E00
1600
3300
2300
3F00
6180
4180
E3C0
0000
0400
0400
ENDCHAR
STARTCHAR uni1EA1
ENCODING 7841
SWIDTH 500 0
DWIDTH 7 0
BBX 7 10 0 -3
BITMAP
78
CC
0C
7C
CC
CC
76
00
10
10
ENDCHAR
STARTCHAR uni1EA4
ENCODING 7844
SWIDTH 722 0
DWIDTH 10 0
BBX 10 18 0 0
BITMAP
0200
0600
0800
0000
0800
1C00
2200
0000
0C00
0C00
1E00
1600
3300
2300
3F00
6180
4180
E3C0
ENDCHAR
STARTCHAR uni1EA5
ENCODING 7845
SWIDTH 500 0
DWIDTH 7 0
BBX 7 15 0 0
BITMAP
04
0C
10
00
10
38
44
00
78
CC
0C
7C
CC
CC
76
ENDCHAR
STARTCHAR uni1EA6
ENCODING 7846
SWIDTH 722 0
DWIDTH 10 0
BBX 10 18 0 0
BITMAP
1000
1800
0400
0000
0800
1C00
2200
0000
0C00
0C00
1E00
1600
3300
2300
3F00
6180
4180
E3C0
ENDCHAR
STARTCHAR uni1EA7
ENCODING 7847
SWIDTH 500 0
DWIDTH 7 0
BBX 7 15 0 0
BITMAP
40
60
10
00
10
38
44
00
78
CC
0C
7C
CC
CC
76
ENDCHAR
STARTCHAR uni1EAA
ENCODING 7850
SWIDTH 722 0
DWIDTH 10 0
BBX 10 17 0 0
BITMAP
1A00
2C00
0000
0800
1C00
2200
0000
0C00
0C00
1E00
1600
3300
2300
3F00
6180
4180
E3C0
ENDCHAR
STARTCHAR uni1EAB
ENCODING 7851
SWIDTH 500 0
DWIDTH 7 0
BBX 7 14 0 0
BITMAP
34
58
00
10
38
44
00
78
CC
0C
7C
CC
CC
76
ENDCHAR
STARTCHAR uni1EAC
ENCODING 7852
SWIDTH 722 0
DWIDTH 10 0
BBX 10 17 0 -3
BITMAP
0400
0E00
1100
0000
0C00
0C00
1E00
1600
3300
2300
3F00
6180
4180
E3C0
0000
0400
0400
ENDCHAR
STARTCHAR uni1EAD
ENCODING 7853
SWIDTH 500 0
DWIDTH 7 0
BBX 7 14 0 -3
BITMAP
10
38
44
00
78
CC
0C
7C
CC
CC
76
00
10
10
ENDCHAR
STARTCHAR uni1EAE
ENCODING 7854
SWIDTH 722 0
DWIDTH 10 0
BBX 10 17 0 0
BITMAP
0200
0600
0800
0000
1100
0E00
0000
0C00
0C00
1E00
1600
3300
2300
3F00
6180
4180
E3C0
ENDCHAR
STARTCHAR uni1EAF
ENCODING 7855
SWIDTH 500 0
DWIDTH 7 0
BBX 7 14 0 0
BITMAP
04
0C
10
00
44
38
00
78
CC
0C
7C
CC
CC
76
ENDCHAR
STARTCHAR uni1EB0
ENCODING 7856
SWIDTH 722 0
DWIDTH 10 0
BBX 10 17 0 0
BITMAP
1000
1800
0400
0000
1100
0E00
0000
0C00
0C00
1E00
1600
3300
2300
3F00
6180
4180
E3C0
ENDCHAR
STARTCHAR uni1EB1
ENCODING 7857
SWIDTH 500 0
DWIDTH 7 0
BBX 7 14 0 0
BITMAP
40
60
10
00
44
38
00
78
CC
0C
7C
CC
CC
76
ENDCHAR
STARTCHAR uni1EB4
ENCODING 7860
SWIDTH 722 0
DWIDTH 10 0
BBX 10 16 0 0
BITMAP
0D00
1600
0000
1100
0E00
0000
0C00
0C00
1E00
1600
3300
2300
3F00
6180
4180
E3C0
ENDCHAR
STARTCHAR uni1EB5
ENCODING 7861
SWIDTH 500 0
DWIDTH 7 0
BBX 7 13 0 0
BITMAP
34
58
00
44
38
00
78
CC
0C
7C
CC
CC
76
ENDCHAR
STARTCHAR uni1EB6
ENCODING 7862
SWIDTH 722 0
DWIDTH 10 0
BBX 10 16 0 -3
BITMAP
1100
0E00
0000
0C00
0C00
1E00
1600
3300
2300
3F00
6180
4180
E3C0
0000
0400
0400
ENDCHAR
STARTCHAR uni1EB7
ENCODING 7863
SWIDTH 500 0
DWIDTH 7 0
BBX 7 13 0 -3
BITMAP
44
38
00
78
CC
0C
7C
CC
CC
76
00
10
10
ENDCHAR
STARTCHAR uni1EB8
ENCODING 7864
SWIDTH 667 0
DWIDTH 9 0
BBX 8 13 0 -3
BITMAP
FF
63
61
64
7C
64
60
61
63
FF
00
08
08
ENDCHAR
STARTCHAR uni1EB9
ENCODING 7865
SWIDTH 444 0
DWIDTH 6 0
BBX 6 10 0 -3
BITMAP
38
4C
CC
FC
C0
E4
78
00
20
20
ENDCHAR
STARTCHAR uni1EBC
ENCODING 7868
SWIDTH 667 0
DWIDTH 9 0
BBX 8 13 0 0
BITMAP
1A
2C
00
FF
63
61
64
7C
64
60
61
63
FF
ENDCHAR
STARTCHAR uni1EBD
ENCODING 7869
SWIDTH 444 0
DWIDTH 6 0
BBX 6 10 0 0
BITMAP
34
58
00
38
4C
CC
FC
C0
E4
78
ENDCHAR
STARTCHAR uni1EBE
ENCODING 7870
SWIDTH 667 0
DWIDTH 9 0
BBX 8 18 0 0
BITMAP
02
06
08
00
08
1C
22
00
FF
63
61
64
7C
64
65
61
63
FF
ENDCHAR
STARTCHAR uni1EBF
ENCODING 7871
SWIDTH 444 0
DWIDTH 7 0
BBX 6 15 0 0
BITMAP
04
0C
10
00
10
38
44
00
38
4C
CC
FC
C0
E4
78
ENDCHAR
STARTCHAR uni1EC0
ENCODING 7872
SWIDTH 667 0
DWIDTH 9 0
BBX 8 18 0 0
BITMAP
20
30
08
00
08
1C
22
00
FF
63
61
64
7C
64
65
61
63
FF
ENDCHAR
STARTCHAR uni1EC1
ENCODING 7873
SWIDTH 444 0
DWIDTH 7 0
BBX 6 15 0 0
BITMAP
40
60
10
00
10
38
44
00
38
4C
CC
FC
C0
E4
78
ENDCHAR
STARTCHAR uni1EC4
ENCODING 7876
SWIDTH 667 0
DWIDTH 9 0
BBX 8 17 0 0
BITMAP
1A
2C
00
08
1C
22
00
FF
63
61
64
7C
64
65
61
63
FF
ENDCHAR
STARTCHAR uni1EC5
ENCODING 7877
SWIDTH 444 0
DWIDTH 7 0
BBX 6 14 0 0
BITMAP
34
58
00
10
38
44
00
38
4C
CC
FC
C0
E4
78
ENDCHAR
STARTCHAR uni1EC6
ENCODING 7878
SWIDTH 667 0
DWIDTH 9 0
BBX 8 17 0 -3
BITMAP
10
38
44
00
FF
63
61
64
7C
64
60
61
63
FF
00
08
08
ENDCHAR
STARTCHAR uni1EC7
ENCODING 7879
SWIDTH 444 0
DWIDTH 6 0
BBX 6 14 0 -3
BITMAP
10
38
44
00
38
4C
CC
FC
C0
E4
78
00
20
20
ENDCHAR
STARTCHAR uni1ECA
ENCODING 7882
SWIDTH 389 0
DWIDTH 5 0
BBX 4 13 0 -3
BITMAP
F0
60
60
60
60
60
60
60
60
F0
00
20
20
ENDCHAR
STARTCHAR uni1ECB
ENCODING 7883
SWIDTH 278 0
DWIDTH 4 0
BBX 4 13 0 -3
BITMAP
60
60
00
E0
60
60
60
60
60
F0
00
20
20
ENDCHAR
STARTCHAR uni1ECC
ENCODING 7884
SWIDTH 778 0
DWIDTH 11 0
BBX 9 13 1 -3
BITMAP
3E00
6300
C180
C180
C180
C180
C180
C180
6300
3E00
0000
0800
0800
ENDCHAR
STARTCHAR uni1ECD
ENCODING 7885
SWIDTH 500 0
DWIDTH 7 0
BBX 6 10 0 -3
BITMAP
78
CC
CC
CC
CC
CC
78
00
10
10
ENDCHAR
STARTCHAR uni1ED0
ENCODING 7888
SWIDTH 778 0
DWIDTH 11 0
BBX 9 18 1 0
BITMAP
0200
0600
0800
0000
0800
1C00
2200
0000
3E00
6300
C180
C180
C180
C180
C180
C180
6300
3E00
ENDCHAR
STARTCHAR uni1ED1
ENCODING 7889
SWIDTH 500 0
DWIDTH 7 0
BBX 6 15 0 0
BITMAP
08
18
20
00
20
70
88
00
78
CC
CC
CC
CC
CC
78
ENDCHAR
STARTCHAR uni1ED2
ENCODING 7890
SWIDTH 778 0
DWIDTH 11 0
BBX 9 18 1 0
BITMAP
2000
3000
0800
0000
0800
1C00
2200
0000
3E00
6300
C180
C180
C180
C180
C180
C180
6300
3E00
ENDCHAR
STARTCHAR uni1ED3
ENCODING 7891
SWIDTH 500 0
DWIDTH 7 0
BBX 6 15 0 0
BITMAP
40
60
10
00
20
70
88
00
78
CC
CC
CC
CC
CC
78
ENDCHAR
STARTCHAR uni1ED6
ENCODING 7894
SWIDTH 778 0
DWIDTH 11 0
BBX 9 17 1 0
BITMAP
1A00
2C00
0000
0800
1C00
2200
0000
3E00
6300
C180
C180
C180
C180
C180
C180
6300
3E00
ENDCHAR
STARTCHAR uni1ED7
ENCODING 7895
SWIDTH 500 0
DWIDTH 7 0
BBX 6 14 0 0
BITMAP
68
B0
00
20
70
88
00
78
CC
CC
CC
CC
CC
78
ENDCHAR
STARTCHAR uni1ED8
ENCODING 7896
SWIDTH 778 0
DWIDTH 11 0
BBX 9 17 1 -3
BITMAP
0800
1C00
2200
0000
3E00
6300
C180
C180
C180
C180
C180
C180
6300
3E00
0000
0800
0800
ENDCHAR
STARTCHAR uni1ED9
ENCODING 7897
SWIDTH 500 0
DWIDTH 7 0
BBX 6 14 0 -3
BITMAP
10
38
44
00
78
CC
CC
CC
CC
CC
78
00
10
10
ENDCHAR
STARTCHAR uni1EDA
ENCODING 7898
SWIDTH 778 0
DWIDTH 11 0
BBX 10 14 1 0
BITMAP
0100
0300
0400
0000
3EC0
63C0
C1C0
C180
C180
C180
C180
C180
6300
3E00
ENDCHAR
STARTCHAR uni1EDB
ENCODING 7899
SWIDTH 500 0
DWIDTH 7 0
BBX 8 11 0 0
BITMAP
04
0C
10
00
7B
CF
CD
CE
CC
CC
78
ENDCHAR
STARTCHAR uni1EDC
ENCODING 7900
SWIDTH 778 0
DWIDTH 11 0
BBX 10 14 1 0
BITMAP
1000
1800
0400
0000
3EC0
63C0
C1C0
C180
C180
C180
C180
C180
6300
3E00
ENDCHAR
STARTCHAR uni1EDD
ENCODING 7901
SWIDTH 500 0
DWIDTH 7 0
BBX 8 11 0 0
BITMAP
20
30
08
00
7B
CF
CD
CE
CC
CC
78
ENDCHAR
STARTCHAR uni1EE0
ENCODING 7904
SWIDTH 778 0
DWIDTH 11 0
BBX 10 13 1 0
BITMAP
0D00
1600
0000
3EC0
63C0
C1C0
C180
C180
C180
C180
C180
6300
3E00
ENDCHAR
STARTCHAR uni1EE1
ENCODING 7905
SWIDTH 500 0
DWIDTH 7 0
BBX 8 10 0 0
BITMAP
1A
2C
00
7B
CF
CD
CE
CC
CC
78
ENDCHAR
STARTCHAR uni1EE2
ENCODING 7906
SWIDTH 778 0
DWIDTH 11 0
BBX 10 13 1 -3
BITMAP
3EC0
63C0
C1C0
C180
C180
C180
C180
C180
6300
3E00
0000
0800
0800
ENDCHAR
STARTCHAR uni1EE3
ENCODING 7907
SWIDTH 500 0
DWIDTH 7 0
BBX 8 10 0 -3
BITMAP
7B
CF
CD
CE
CC
CC
78
00
10
10
ENDCHAR
STARTCHAR uni1EE4
ENCODING 7908
SWIDTH 722 0
DWIDTH 10 0
BBX 9 13 0 -3
BITMAP
F380
6100
6100
6100
6100
6100
6100
6100
7300
3E00
0000
0800
0800
ENDCHAR
STARTCHAR uni1EE5
ENCODING 7909
SWIDTH 556 0
DWIDTH 7 0
BBX 8 10 -1 -3
BITMAP
EE
66
66
66
66
66
3B
00
08
08
ENDCHAR
STARTCHAR uni1EE8
ENCODING 7912
SWIDTH 722 0
DWIDTH 10 0
BBX 10 14 0 0
BITMAP
0200
0600
0800
0000
F3C0
61C0
6140
6180
6100
6100
6100
6100
7300
3E00
ENDCHAR
STARTCHAR uni1EE9
ENCODING 7913
SWIDTH 556 0
DWIDTH 7 0
BBX 10 11 -1 0
BITMAP
0200
0600
0800
0000
EEC0
66C0
6640
6680
6600
6600
3B00
ENDCHAR
STARTCHAR uni1EEA
ENCODING 7914
SWIDTH 722 0
DWIDTH 10 0
BBX 10 14 0 0
BITMAP
1000
1800
0400
0000
F3C0
61C0
6140
6180
6100
6100
6100
6100
7300
3E00
ENDCHAR
STARTCHAR uni1EEB
ENCODING 7915
SWIDTH 556 0
DWIDTH 7 0
BBX 10 11 -1 0
BITMAP
1000
1800
0400
0000
EEC0
66C0
6640
6680
6600
6600
3B00
ENDCHAR
STARTCHAR uni1EEE
ENCODING 7918
SWIDTH 722 0
DWIDTH 10 0
BBX 10 13 0 0
BITMAP
0D00
1600
0000
F3C0
61C0
6140
6180
6100
6100
6100
6100
7300
3E00
ENDCHAR
STARTCHAR uni1EEF
ENCODING 7919
SWIDTH 556 0
DWIDTH 7 0
BBX 10 10 -1 0
BITMAP
0D00
1600
0000
EEC0
66C0
6640
6680
6600
6600
3B00
ENDCHAR
STARTCHAR uni1EF0
ENCODING 7920
SWIDTH 722 0
DWIDTH 10 0
BBX 10 13 0 -3
BITMAP
F3C0
61C0
6140
6180
6100
6100
6100
6100
7300
3E00
0000
0800
0800
ENDCHAR
STARTCHAR uni1EF1
ENCODING 7921
SWIDTH 556 0
DWIDTH 7 0
BBX 10 10 -1 -3
BITMAP
EEC0
66C0
6640
6680
6600
6600
3B00
0000
0800
0800
ENDCHAR
STARTCHAR Ygrave
ENCODING 7922
SWIDTH 722 0
DWIDTH 10 0
BBX 10 14 0 0
BITMAP
1000
1800
0400
0000
F9C0
7080
3100
3900
1A00
1E00
0C00
0C00
0C00
1E00
ENDCHAR
STARTCHAR ygrave
ENCODING 7923
SWIDTH 500 0
DWIDTH 7 0
BBX 8 14 -1 -3
BITMAP
20
30
08
00
F7
62
32
34
1C
1C
08
08
38
30
ENDCHAR
STARTCHAR uni1EF4
ENCODING 7924
SWIDTH 722 0
DWIDTH 10 0
BBX 10 13 0 -3
BITMAP
F9C0
7080
3100
3900
1A00
1E00
0C00
0C00
0C00
1E00
0000
0400
0400
ENDCHAR
STARTCHAR uni1EF5
ENCODING 7925
SWIDTH 500 0
DWIDTH 7 0
BBX 8 13 -1 -6
BITMAP
F7
62
32
34
1C
1C
08
08
38
30
00
10
10
ENDCHAR
STARTCHAR uni1EF8
ENCODING 7928
SWIDTH 722 0
DWIDTH 10 0
BBX 10 13 0 0
BITMAP
1A00
2C00
0000
F9C0
7080
3100
3900
1A00
1E00
0C00
0C00
0C00
1E00
ENDCHAR
STARTCHAR uni1EF9
ENCODING 7929
SWIDTH 500 0
DWIDTH 7 0
BBX 8 13 -1 -3
BITMAP
1A
2C
00
F7
62
32
34
1C
1C
08
08
38
30
ENDCHAR
STARTCHAR uni2000
ENCODING 8192
SWIDTH 500 0
DWIDTH 7 0
BBX 1 1 0 0
BITMAP
00
ENDCHAR
STARTCHAR uni2001
ENCODING 8193
SWIDTH 1000 0
DWIDTH 14 0
BBX 1 1 0 0
BITMAP
00
ENDCHAR
STARTCHAR uni2002
ENCODING 8194
SWIDTH 500 0
DWIDTH 7 0
BBX 1 1 0 0
BITMAP
00
ENDCHAR
STARTCHAR uni2003
ENCODING 8195
SWIDTH 1000 0
DWIDTH 14 0
BBX 1 1 0 0
BITMAP
00
ENDCHAR
STARTCHAR uni2004
ENCODING 8196
SWIDTH 333 0
DWIDTH 5 0
BBX 1 1 0 0
BITMAP
00
ENDCHAR
STARTCHAR uni2005
ENCODING 8197
SWIDTH 250 0
DWIDTH 3 0
BBX 1 1 0 0
BITMAP
00
ENDCHAR
STARTCHAR uni2006
ENCODING 8198
SWIDTH 167 0
DWIDTH 2 0
BBX 1 1 0 0
BITMAP
00
ENDCHAR
STARTCHAR uni2007
ENCODING 8199
SWIDTH 500 0
DWIDTH 7 0
BBX 1 1 0 0
BITMAP
00
ENDCHAR
STARTCHAR uni2008
ENCODING 8200
SWIDTH 250 0
DWIDTH 3 0
BBX 1 1 0 0
BITMAP
00
ENDCHAR
STARTCHAR uni2009
ENCODING 8201
SWIDTH 200 0
DWIDTH 3 0
BBX 1 1 0 0
BITMAP
00
ENDCHAR
STARTCHAR uni200A
ENCODING 8202
SWIDTH 100 0
DWIDTH 1 0
BBX 1 1 0 0
BITMAP
00
ENDCHAR
STARTCHAR uni200B
ENCODING 8203
SWIDTH 0 0
DWIDTH 0 0
BBX 1 1 0 0
BITMAP
00
ENDCHAR
STARTCHAR uni2010
ENCODING 8208
SWIDTH 333 0
DWIDTH 4 0
BBX 3 1 0 3
BITMAP
E0
ENDCHAR
STARTCHAR uni2011
ENCODING 8209
SWIDTH 333 0
DWIDTH 4 0
BBX 3 1 0 3
BITMAP
E0
ENDCHAR
STARTCHAR figuredash
ENCODING 8210
SWIDTH 500 0
DWIDTH 7 0
BBX 7 1 0 3
BITMAP
FE
ENDCHAR
STARTCHAR endash
ENCODING 8211
SWIDTH 500 0
DWIDTH 7 0
BBX 7 1 0 3
BITMAP
FE
ENDCHAR
STARTCHAR emdash
ENCODING 8212
SWIDTH 1000 0
DWIDTH 14 0
BBX 14 1 0 3
BITMAP
FFFC
ENDCHAR
STARTCHAR afii00208
ENCODING 8213
SWIDTH 1000 0
DWIDTH 14 0
BBX 14 1 0 3
BITMAP
FFFC
ENDCHAR
STARTCHAR quoteleft
ENCODING 8216
SWIDTH 333 0
DWIDTH 4 0
BBX 2 4 1 6
BITMAP
40
80
C0
C0
ENDCHAR
STARTCHAR quoteright
ENCODING 8217
SWIDTH 333 0
DWIDTH 4 0
BBX 2 4 1 6
BITMAP
C0
C0
40
80
ENDCHAR
STARTCHAR quotesinglbase
ENCODING 8218
SWIDTH 333 0
DWIDTH 4 0
BBX 2 4 1 -2
BITMAP
C0
C0
40
80
ENDCHAR
STARTCHAR quotereversed
ENCODING 8219
SWIDTH 333 0
DWIDTH 4 0
BBX 2 4 1 6
BITMAP
C0
C0
80
40
ENDCHAR
STARTCHAR quotedblleft
ENCODING 8220
SWIDTH 500 0
DWIDTH 7 0
BBX 5 4 1 6
BITMAP
48
90
D8
D8
ENDCHAR
STARTCHAR quotedblright
ENCODING 8221
SWIDTH 500 0
DWIDTH 7 0
BBX 5 4 1 6
BITMAP
D8
D8
48
90
ENDCHAR
STARTCHAR quotedblbase
ENCODING 8222
SWIDTH 500 0
DWIDTH 7 0
BBX 5 4 1 -2
BITMAP
D8
D8
48
90
ENDCHAR
STARTCHAR uni201F
ENCODING 8223
SWIDTH 500 0
DWIDTH 7 0
BBX 5 4 1 6
BITMAP
D8
D8
90
48
ENDCHAR
STARTCHAR dagger
ENCODING 8224
SWIDTH 500 0
DWIDTH 7 0
BBX 7 12 0 -2
BITMAP
10
10
54
FE
54
10
10
10
10
10
10
10
ENDCHAR
STARTCHAR daggerdbl
ENCODING 8225
SWIDTH 500 0
DWIDTH 7 0
BBX 7 12 0 -2
BITMAP
10
10
54
FE
54
10
10
54
FE
54
10
10
ENDCHAR
STARTCHAR bullet
ENCODING 8226
SWIDTH 350 0
DWIDTH 5 0
BBX 4 4 0 2
BITMAP
60
F0
F0
60
ENDCHAR
STARTCHAR ellipsis
ENCODING 8230
SWIDTH 1000 0
DWIDTH 15 0
BBX 12 2 1 0
BITMAP
C630
C630
ENDCHAR
STARTCHAR perthousand
ENCODING 8240
SWIDTH 1000 0
DWIDTH 15 0
BBX 14 10 0 0
BITMAP
7300
DF00
D600
E400
0C00
1800
139C
36B4
66B4
6738
ENDCHAR
STARTCHAR guilsinglleft
ENCODING 8249
SWIDTH 333 0
DWIDTH 6 0
BBX 4 5 1 1
BITMAP
30
60
C0
60
30
ENDCHAR
STARTCHAR guilsinglright
ENCODING 8250
SWIDTH 333 0
DWIDTH 6 0
BBX 4 5 1 1
BITMAP
C0
60
30
60
C0
ENDCHAR
STARTCHAR fraction
ENCODING 8260
SWIDTH 167 0
DWIDTH 4 0
BBX 5 10 -1 0
BITMAP
08
08
10
10
20
20
40
40
80
80
ENDCHAR
STARTCHAR oneinferior
ENCODING 8321
SWIDTH 300 0
DWIDTH 4 0
BBX 4 6 0 -3
BITMAP
20
E0
60
60
60
F0
ENDCHAR
STARTCHAR twoinferior
ENCODING 8322
SWIDTH 300 0
DWIDTH 4 0
BBX 4 6 0 -3
BITMAP
60
B0
30
60
C0
F0
ENDCHAR
STARTCHAR threeinferior
ENCODING 8323
SWIDTH 300 0
DWIDTH 4 0
BBX 4 6 0 -3
BITMAP
60
B0
60
30
B0
60
ENDCHAR
STARTCHAR uni20A5
ENCODING 8357
SWIDTH 833 0
DWIDTH 12 0
BBX 12 10 0 -1
BITMAP
0100
0100
EFC0
7760
6660
6660
6660
6E60
FF70
0800
ENDCHAR
STARTCHAR uni20A6
ENCODING 8358
SWIDTH 722 0
DWIDTH 10 0
BBX 10 10 0 0
BITMAP
E1C0
7080
7080
7F80
4C80
7F80
4680
4380
4380
E180
ENDCHAR
STARTCHAR uni20A9
ENCODING 8361
SWIDTH 1000 0
DWIDTH 14 0
BBX 15 10 -1 0
BITMAP
F79E
630C
6308
3FE8
3190
3FF0
1AD0
1CE0
0C60
0C60
ENDCHAR
STARTCHAR Euro
ENCODING 8364
SWIDTH 722 0
DWIDTH 10 0
BBX 9 10 0 0
BITMAP
1E80
3180
6080
FE80
6000
FE00
6000
6080
3180
1F00
ENDCHAR
STARTCHAR uni20AD
ENCODING 8365
SWIDTH 778 0
DWIDTH 11 0
BBX 10 10 1 0
BITMAP
F7C0
6300
6200
6400
FFC0
7C00
6E00
6700
6380
F7C0
ENDCHAR
STARTCHAR uni2103
ENCODING 8451
SWIDTH 1102 0
DWIDTH 16 0
BBX 14 10 1 0
BITMAP
60F4
918C
9304
6304
0300
0300
0300
0304
018C
00F8
ENDCHAR
STARTCHAR uni2109
ENCODING 8457
SWIDTH 991 0
DWIDTH 14 0
BBX 13 10 1 0
BITMAP
67F8
9318
9308
6320
03E0
0320
0320
0300
0300
0780
ENDCHAR
STARTCHAR trademark
ENCODING 8482
SWIDTH 1000 0
DWIDTH 15 0
BBX 13 6 1 4
BITMAP
FB18
A9B0
21B0
2150
2150
7358
ENDCHAR
STARTCHAR uni212A
ENCODING 8490
SWIDTH 778 0
DWIDTH 11 0
BBX 10 10 1 0
BITMAP
F7C0
6300
6200
6400
7800
7C00
6E00
6700
6380
F7C0
ENDCHAR
STARTCHAR uni212B
ENCODING 8491
SWIDTH 722 0
DWIDTH 10 0
BBX 10 14 0 0
BITMAP
0C00
1200
0C00
0000
0C00
0C00
1E00
1600
3300
2300
3F00
6180
4180
E3C0
ENDCHAR
STARTCHAR uni2132
ENCODING 8498
SWIDTH 611 0
DWIDTH 8 0
BBX 8 10 0 0
BITMAP
0F
06
06
26
26
3E
26
86
C6
FF
ENDCHAR
STARTCHAR universal
ENCODING 8704
SWIDTH 722 0
DWIDTH 10 0
BBX 10 10 0 0
BITMAP
E3C0
4180
6180
3F00
2300
3300
1600
1E00
0C00
0C00
ENDCHAR
STARTCHAR existential
ENCODING 8707
SWIDTH 667 0
DWIDTH 9 0
BBX 8 10 0 0
BITMAP
FF
C6
86
26
3E
26
06
86
C6
FF
ENDCHAR
STARTCHAR uni2204
ENCODING 8708
SWIDTH 667 0
DWIDTH 9 0
BBX 8 10 0 0
BITMAP
FF
C6
8E
2E
3E
36
16
B6
E6
FF
ENDCHAR
STARTCHAR minus
ENCODING 8722
SWIDTH 570 0
DWIDTH 9 0
BBX 6 1 1 3
BITMAP
FC
ENDCHAR
STARTCHAR fraction
ENCODING 8725
SWIDTH 167 0
DWIDTH 4 0
BBX 5 10 -1 0
BITMAP
08
08
10
10
20
20
40
40
80
80
ENDCHAR
STARTCHAR periodcentered
ENCODING 8729
SWIDTH 250 0
DWIDTH 4 0
BBX 2 2 0 4
BITMAP
C0
C0
ENDCHAR
STARTCHAR uni2236
ENCODING 8758
SWIDTH 333 0
DWIDTH 4 0
BBX 2 7 1 0
BITMAP
C0
C0
00
00
00
C0
C0
ENDCHAR
STARTCHAR uni2259
ENCODING 8793
SWIDTH 570 0
DWIDTH 8 0
BBX 7 7 0 2
BITMAP
10
38
44
00
FE
00
FE
ENDCHAR
STARTCHAR uni225A
ENCODING 8794
SWIDTH 570 0
DWIDTH 8 0
BBX 7 7 0 2
BITMAP
44
38
10
00
FE
00
FE
ENDCHAR
STARTCHAR notequal
ENCODING 8800
SWIDTH 570 0
DWIDTH 8 0
BBX 7 10 0 -1
BITMAP
04
04
0C
08
FE
10
FE
30
20
20
ENDCHAR
STARTCHAR equivalence
ENCODING 8801
SWIDTH 570 0
DWIDTH 8 0
BBX 7 5 0 1
BITMAP
FE
00
FE
00
FE
ENDCHAR
STARTCHAR uni2262
ENCODING 8802
SWIDTH 570 0
DWIDTH 8 0
BBX 7 10 0 -1
BITMAP
04
04
0C
FE
18
FE
10
FE
20
20
ENDCHAR
STARTCHAR lessequal
ENCODING 8804
SWIDTH 570 0
DWIDTH 8 0
BBX 7 9 0 -2
BITMAP
06
1C
70
C0
70
1C
06
00
FE
ENDCHAR
STARTCHAR greaterequal
ENCODING 8805
SWIDTH 570 0
DWIDTH 8 0
BBX 7 9 0 -2
BITMAP
C0
70
1C
06
1C
70
C0
00
FE
ENDCHAR
STARTCHAR uni226E
ENCODING 8814
SWIDTH 570 0
DWIDTH 8 0
BBX 7 10 0 -1
BITMAP
04
04
0E
1C
78
D0
70
3C
26
20
ENDCHAR
STARTCHAR uni226F
ENCODING 8815
SWIDTH 570 0
DWIDTH 8 0
BBX 7 10 0 -1
BITMAP
04
04
CC
78
1C
16
1C
70
E0
20
ENDCHAR
STARTCHAR uni2270
ENCODING 8816
SWIDTH 570 0
DWIDTH 8 0
BBX 7 10 0 -2
BITMAP
04
06
1C
78
D8
70
1C
36
20
FE
ENDCHAR
STARTCHAR uni2271
ENCODING 8817
SWIDTH 570 0
DWIDTH 8 0
BBX 7 10 0 -2
BITMAP
04
C4
7C
1C
1E
1C
70
F0
20
FE
ENDCHAR
STARTCHAR fi
ENCODING -1
SWIDTH 556 0
DWIDTH 8 0
BBX 8 10 0 0
BITMAP
3E
66
60
FE
66
66
66
66
66
FF
ENDCHAR
STARTCHAR fl
ENCODING -1
SWIDTH 556 0
DWIDTH 8 0
BBX 8 10 0 0
BITMAP
3E
66
66
FE
66
66
66
66
66
EF
ENDCHAR
ENDFONT
